<svg width="40" height="39" viewBox="0 0 60 59" fill="none" xmlns="http://www.w3.org/2000/svg">
<path d="M29.9754 4.91675C16.4054 4.91675 5.41669 15.9301 5.41669 29.5001C5.41669 43.0701 16.4054 54.0834 29.9754 54.0834C43.57 54.0834 54.5834 43.0701 54.5834 29.5001C54.5834 15.9301 43.57 4.91675 29.9754 4.91675ZM30 49.1667C19.1342 49.1667 10.3334 40.3659 10.3334 29.5001C10.3334 18.6342 19.1342 9.83341 30 9.83341C40.8659 9.83341 49.6667 18.6342 49.6667 29.5001C49.6667 40.3659 40.8659 49.1667 30 49.1667ZM31.2292 17.2084H27.5417V31.9584L40.4479 39.7022L42.2917 36.6784L31.2292 30.1147V17.2084Z" fill="#6934FF"/>
</svg>
