<svg width="705" height="541" viewBox="0 0 705 541" fill="none" xmlns="http://www.w3.org/2000/svg">
<path d="M705 474.556H0V474.918H705V474.556Z" fill="#EBEBEB"/>
<path d="M574.039 484.427H469.995V484.789H574.039V484.427Z" fill="#EBEBEB"/>
<path d="M158.357 486.862H146.104V487.224H158.357V486.862Z" fill="#EBEBEB"/>
<path d="M602.507 497.878H575.449V498.24H602.507V497.878Z" fill="#EBEBEB"/>
<path d="M350.625 492.979H282V493.341H350.625V492.979Z" fill="#EBEBEB"/>
<path d="M269.451 492.979H235.075V493.341H269.451V492.979Z" fill="#EBEBEB"/>
<path d="M120.71 486.862H73.9688V487.224H120.71V486.862Z" fill="#EBEBEB"/>
<path d="M334.17 409.91H61.913C59.7801 409.906 57.7359 409.032 56.2291 407.48C54.7223 405.929 53.876 403.826 53.876 401.633V8.20399C53.8945 6.02403 54.749 3.93962 56.2539 2.40353C57.7587 0.867445 59.7923 0.00373344 61.913 -9.53674e-07H334.17C336.305 -9.53674e-07 338.353 0.871981 339.863 2.42412C341.373 3.97626 342.221 6.08141 342.221 8.27646V401.633C342.221 403.828 341.373 405.933 339.863 407.486C338.353 409.038 336.305 409.91 334.17 409.91ZM61.913 0.289894C59.8736 0.293733 57.9191 1.12923 56.4784 2.61299C55.0376 4.09676 54.2285 6.10755 54.2285 8.20399V401.633C54.2285 403.73 55.0376 405.74 56.4784 407.224C57.9191 408.708 59.8736 409.543 61.913 409.547H334.17C336.211 409.543 338.167 408.708 339.609 407.225C341.052 405.742 341.865 403.731 341.868 401.633V8.20399C341.865 6.10622 341.052 4.09546 339.609 2.61211C338.167 1.12876 336.211 0.293725 334.17 0.289894H61.913Z" fill="#EBEBEB"/>
<path d="M639.167 409.91H366.896C364.762 409.906 362.716 409.033 361.207 407.481C359.698 405.93 358.848 403.827 358.845 401.633V8.20399C358.867 6.0227 359.725 3.93832 361.232 2.40263C362.739 0.866939 364.774 0.00369271 366.896 -9.53674e-07H639.167C641.285 0.0075428 643.315 0.87294 644.817 2.40862C646.319 3.9443 647.171 6.02653 647.19 8.20399V401.633C647.19 403.823 646.345 405.924 644.842 407.475C643.338 409.027 641.297 409.902 639.167 409.91ZM366.896 0.289894C364.855 0.293725 362.899 1.12876 361.456 2.61211C360.013 4.09546 359.201 6.10622 359.197 8.20399V401.633C359.201 403.731 360.013 405.742 361.456 407.225C362.899 408.708 364.855 409.543 366.896 409.547H639.167C641.207 409.543 643.163 408.708 644.606 407.225C646.049 405.742 646.862 403.731 646.865 401.633V8.20399C646.862 6.10622 646.049 4.09546 644.606 2.61211C643.163 1.12876 641.207 0.293725 639.167 0.289894H366.896Z" fill="#EBEBEB"/>
<path d="M463.538 470.381H245.326V474.541H463.538V470.381Z" fill="#F0F0F0"/>
<path d="M547.179 301.852C547.179 301.852 565.241 327.942 591.721 305.664C616.311 285.009 592.144 235.031 592.144 235.031C592.144 235.031 620.725 244.264 625.335 205.52C629.946 166.776 589.38 176.618 589.38 176.618C603.833 147.078 587.265 146.179 574.9 148.788C578.65 141.541 579.835 132.641 570.909 125.147C550.478 108 536.548 128.046 536.548 128.046C536.548 128.046 525.916 90.4758 500.762 112.406V322.144C533.403 350.568 547.179 301.852 547.179 301.852Z" fill="#F5F5F5"/>
<path d="M510.18 96.7085H93.5254V474.556H510.18V96.7085Z" fill="#FAFAFA"/>
<path d="M480.204 38.0051H123.502L93.5254 96.7085H510.18L480.204 38.0051Z" fill="#F0F0F0"/>
<path d="M447.605 435.768V396.966H423.127V358.178H244.917V396.966H269.395V435.768H293.886V474.556H472.082V435.768H447.605Z" fill="#F5F5F5"/>
<path d="M244.917 358.178V396.966H269.395V435.768H293.886V474.556H93.5254V358.178H244.917Z" fill="#EBEBEB"/>
<path d="M423.127 392.806H244.917V396.966H423.127V392.806Z" fill="#F0F0F0"/>
<path d="M447.604 431.594H269.395V435.754H447.604V431.594Z" fill="#F0F0F0"/>
<path d="M232.65 130.93H115.465V358.178H232.65V130.93Z" fill="#F0F0F0"/>
<path d="M113.265 358.178H115.465L115.465 130.93H113.265L113.265 358.178Z" fill="#E6E6E6"/>
<path d="M215.138 251.236C218.728 251.236 221.638 248.245 221.638 244.554C221.638 240.864 218.728 237.872 215.138 237.872C211.548 237.872 208.638 240.864 208.638 244.554C208.638 248.245 211.548 251.236 215.138 251.236Z" fill="#FAFAFA"/>
<path d="M443.671 130.93H273.329V305.678H443.671V130.93Z" fill="#F5F5F5"/>
<path d="M436.578 297.474V139.134H280.449V297.474H436.578Z" fill="white"/>
<path d="M280.435 139.149V297.474H285.032C285.032 297.474 306.097 245.656 311.963 139.134L280.435 139.149Z" fill="#FAFAFA"/>
<path d="M436.578 139.149V297.474H431.968C431.968 297.474 410.916 245.656 405.051 139.149H436.578Z" fill="#FAFAFA"/>
<path d="M440.738 212.796H276.275V223.812H440.738V212.796Z" fill="#F5F5F5"/>
<path d="M363.864 302.837V133.771H353.148V302.837H363.864Z" fill="#F5F5F5"/>
<path d="M352.5 540.014C503.486 540.014 625.885 532.668 625.885 523.606C625.885 514.544 503.486 507.198 352.5 507.198C201.514 507.198 79.1152 514.544 79.1152 523.606C79.1152 532.668 201.514 540.014 352.5 540.014Z" fill="#F5F5F5"/>
<path d="M260.272 523.606H215.842C214.167 523.606 212.56 522.922 211.376 521.704C210.191 520.486 209.526 518.834 209.526 517.112V437.522H266.588V517.127C266.585 518.846 265.917 520.494 264.733 521.709C263.549 522.924 261.944 523.606 260.272 523.606Z" fill="#6934FF"/>
<path opacity="0.2" d="M266.588 437.522H209.54V472.063L266.588 459.351V437.522Z" fill="black"/>
<path d="M291.137 333.102C291.137 311.19 299.604 290.176 314.677 274.681C329.749 259.187 350.191 250.483 371.507 250.483C392.822 250.483 413.265 259.187 428.337 274.681C443.409 290.176 451.877 311.19 451.877 333.102V437.464H291.137V333.102Z" fill="#6934FF"/>
<path opacity="0.3" d="M291.137 333.102C291.137 311.19 299.604 290.176 314.677 274.681C329.749 259.187 350.191 250.483 371.507 250.483C392.822 250.483 413.265 259.187 428.337 274.681C443.409 290.176 451.877 311.19 451.877 333.102V437.464H291.137V333.102Z" fill="black"/>
<path d="M101.929 333.088V427.231C101.929 428.583 102.188 429.923 102.692 431.172C103.196 432.422 103.935 433.557 104.866 434.513C105.797 435.469 106.902 436.226 108.118 436.743C109.335 437.259 110.638 437.524 111.954 437.522H291.137V333.088C291.137 311.176 299.604 290.161 314.676 274.667C329.749 259.173 350.191 250.468 371.507 250.468H182.299C160.983 250.468 140.541 259.173 125.469 274.667C110.396 290.161 101.929 311.176 101.929 333.088Z" fill="#6934FF"/>
<path opacity="0.2" d="M101.943 406.706H291.15V377.717H101.943V406.706Z" fill="black"/>
<path opacity="0.2" d="M101.943 368.716H291.15V339.726H101.943V368.716Z" fill="black"/>
<path d="M302.995 245.395H279.969V246.845H302.995V245.395Z" fill="#6934FF"/>
<path d="M267.9 245.395H255.52V246.845H267.9V245.395Z" fill="#6934FF"/>
<path d="M194.467 360.251V242.844C194.467 242.376 194.368 241.913 194.177 241.489C193.985 241.064 193.706 240.688 193.358 240.385C193.01 240.083 192.603 239.862 192.164 239.739C191.724 239.615 191.264 239.592 190.815 239.67L150.955 246.41V263.412H181.425V359.99C178.348 361.443 175.841 363.926 174.315 367.033C172.789 370.141 172.333 373.688 173.023 377.096C173.712 380.504 175.506 383.571 178.111 385.795C180.715 388.019 183.977 389.269 187.362 389.341C190.748 389.412 194.056 388.301 196.748 386.188C199.439 384.076 201.354 381.088 202.179 377.712C203.004 374.336 202.69 370.772 201.289 367.603C199.889 364.434 197.484 361.847 194.467 360.265V360.251Z" fill="#263238"/>
<path d="M302.572 449.335H508.77C510.275 449.339 511.721 448.732 512.793 447.647C513.865 446.561 514.476 445.084 514.495 443.537C514.495 441.977 513.892 440.48 512.818 439.376C511.745 438.273 510.288 437.653 508.77 437.653H291.137C291.155 440.758 292.368 443.729 294.511 445.918C296.653 448.107 299.551 449.335 302.572 449.335Z" fill="#6934FF"/>
<path opacity="0.2" d="M302.572 449.335H386.833C388.338 449.339 389.784 448.732 390.856 447.647C391.928 446.561 392.539 445.084 392.558 443.537C392.558 441.977 391.955 440.48 390.881 439.376C389.808 438.273 388.352 437.653 386.833 437.653H291.137C291.155 440.758 292.368 443.729 294.511 445.918C296.653 448.107 299.551 449.335 302.572 449.335Z" fill="black"/>
<path d="M499.817 510.764L487.888 510.865L484.631 482.47L496.574 482.369L499.817 510.764Z" fill="#FF8B7B"/>
<path opacity="0.2" d="M484.631 482.485L486.309 497.124L498.252 497.008L496.574 482.383L484.631 482.485Z" fill="black"/>
<path d="M596.768 480.658L586.503 486.92L569.795 464.062L580.06 457.8L596.768 480.658Z" fill="#FF8B7B"/>
<path opacity="0.2" d="M569.81 464.062L578.411 475.846L588.689 469.584L580.074 457.8L569.81 464.062Z" fill="black"/>
<path d="M487.86 509.445L500.903 509.329C501.144 509.331 501.378 509.412 501.571 509.561C501.763 509.709 501.905 509.918 501.974 510.155L505.133 521.04C505.214 521.293 505.235 521.562 505.194 521.824C505.153 522.087 505.052 522.335 504.899 522.55C504.746 522.764 504.545 522.937 504.314 523.056C504.082 523.174 503.826 523.233 503.568 523.229C498.858 523.229 492.048 522.968 486.126 523.026C479.217 523.026 476.143 523.533 468.036 523.606C463.129 523.606 461.409 518.562 463.425 518.083C472.604 515.909 477.356 515.619 485.054 510.43C485.878 509.831 486.852 509.489 487.86 509.445Z" fill="#263238"/>
<path d="M482.939 511.662C484.225 511.637 485.506 511.477 486.76 511.184C486.818 511.174 486.87 511.144 486.908 511.099C486.947 511.055 486.969 510.997 486.972 510.938C486.978 510.879 486.966 510.82 486.938 510.768C486.911 510.716 486.868 510.674 486.817 510.648C486.253 510.358 481.177 507.894 479.865 508.763C479.739 508.847 479.635 508.963 479.566 509.101C479.497 509.238 479.464 509.392 479.47 509.546C479.455 509.822 479.505 510.098 479.616 510.351C479.726 510.603 479.894 510.824 480.105 510.996C480.955 511.527 481.949 511.761 482.939 511.662ZM485.759 510.793C483.179 511.257 481.219 511.155 480.429 510.503C480.291 510.388 480.181 510.242 480.108 510.076C480.034 509.91 480 509.728 480.006 509.546C480.001 509.491 480.01 509.435 480.032 509.384C480.054 509.333 480.089 509.289 480.133 509.256C480.909 508.763 483.743 509.807 485.787 510.764L485.759 510.793Z" fill="#6934FF"/>
<path d="M486.704 511.169C486.76 511.182 486.817 511.182 486.873 511.169C486.914 511.139 486.946 511.096 486.964 511.047C486.981 510.998 486.984 510.945 486.972 510.894C486.972 510.662 486.041 505.386 483.193 505.719C482.446 505.806 482.234 506.183 482.192 506.502C481.994 507.952 485.012 510.532 486.591 511.198L486.704 511.169ZM483.433 506.227C485.139 506.227 485.999 509.126 486.253 510.343C484.688 509.43 482.587 507.343 482.699 506.531C482.699 506.531 482.699 506.285 483.207 506.227H483.433Z" fill="#6934FF"/>
<path d="M505.175 171.95C503.61 181.271 501.622 190.214 499.211 199.244C498.008 203.747 496.677 208.235 495.22 212.709C494.459 214.956 493.74 217.188 492.88 219.421C492.471 220.537 492.062 221.653 491.597 222.769L490.934 224.45L490.596 225.276L490.412 225.726L490.159 226.291C489.001 228.853 487.583 231.283 485.929 233.538C484.519 235.582 482.982 237.466 481.473 239.336C478.456 242.989 475.311 246.381 472.125 249.714C465.761 256.286 459.068 262.513 452.074 268.369L445.715 261.861C451.144 254.773 456.615 247.613 461.902 240.525C464.539 236.988 467.105 233.393 469.502 229.842C470.701 228.074 471.843 226.291 472.844 224.552C473.75 223.071 474.524 221.509 475.156 219.884C475.241 219.71 475.438 219.015 475.593 218.551L476.073 217.014C476.411 216.014 476.707 214.971 477.003 213.927C477.61 211.854 478.174 209.738 478.752 207.636C479.851 203.389 480.881 199.099 481.882 194.78C483.828 186.083 485.703 177.299 487.395 168.689L505.175 171.95Z" fill="#FF8B7B"/>
<path d="M509.391 173.646C508.672 187.648 502.073 207.303 502.073 207.303L483.546 200.056L475.918 197.157C476.923 187.886 479.064 178.784 482.291 170.066C487.931 155.137 501.002 151.498 507.671 162.485C509.222 164.964 509.631 168.994 509.391 173.646Z" fill="#6934FF"/>
<path opacity="0.2" d="M509.391 173.646C508.672 187.648 502.073 207.303 502.073 207.303L483.545 200.056C484.648 195.116 486.09 190.262 487.86 185.532C492.485 173.095 502.355 168.501 509.391 173.646Z" fill="black"/>
<path d="M448.718 260.484L436.141 262.6L436.042 275.283C436.042 275.283 448.112 273.544 452.836 267.601L448.718 260.484Z" fill="#FF8B7B"/>
<path d="M424.495 269.949L424.763 278.283L436.043 275.283L436.127 262.6L424.495 269.949Z" fill="#FF8B7B"/>
<path d="M496.151 262.6C496.151 262.6 478.23 329.667 473.478 367.208C468.543 406.257 480.19 489.993 480.19 489.993L501.749 489.514C501.749 489.514 503.37 404.155 510.42 365.759C518.147 323.913 532.867 261.788 532.867 261.788L496.151 262.6Z" fill="#263238"/>
<path d="M504.4 490.515L479.048 491.036L477.187 482.383L504.075 482.311L504.4 490.515Z" fill="#6934FF"/>
<path opacity="0.4" d="M504.4 490.515L479.048 491.036L477.187 482.383L504.075 482.311L504.4 490.515Z" fill="white"/>
<path d="M585.785 485.702L596.994 478.861C597.212 478.718 597.47 478.655 597.727 478.684C597.983 478.713 598.222 478.832 598.404 479.02L606.455 486.789C606.651 486.966 606.802 487.188 606.897 487.437C606.991 487.686 607.026 487.954 606.999 488.22C606.971 488.486 606.882 488.741 606.738 488.963C606.594 489.186 606.401 489.37 606.173 489.5C602.084 491.906 596.092 495.298 591.002 498.327C585.066 501.965 582.542 503.937 575.647 508.184C571.417 510.764 567.455 507.27 568.963 505.807C575.83 499.168 579.792 496.457 583.909 488.007C584.306 487.07 584.957 486.269 585.785 485.702Z" fill="#263238"/>
<path d="M582.598 490.138C583.693 489.446 584.722 488.65 585.672 487.761C585.713 487.718 585.742 487.663 585.754 487.604C585.767 487.545 585.763 487.484 585.742 487.427C585.721 487.37 585.681 487.322 585.63 487.291C585.579 487.259 585.519 487.246 585.46 487.253C584.826 487.253 579.285 487.746 578.537 489.225C578.457 489.357 578.415 489.511 578.415 489.667C578.415 489.823 578.457 489.976 578.537 490.109C578.661 490.344 578.836 490.546 579.049 490.699C579.262 490.853 579.507 490.953 579.764 490.993C580.774 491.034 581.77 490.734 582.598 490.138ZM584.643 487.906C582.64 489.645 580.892 490.573 579.891 490.413C579.717 490.387 579.552 490.319 579.407 490.216C579.263 490.113 579.144 489.977 579.059 489.819C579.029 489.769 579.013 489.711 579.013 489.652C579.013 489.593 579.029 489.536 579.059 489.486C579.51 488.703 582.401 488.137 584.643 487.906Z" fill="#6934FF"/>
<path d="M585.63 487.79C585.678 487.751 585.717 487.702 585.742 487.645C585.77 487.602 585.785 487.551 585.785 487.5C585.785 487.448 585.77 487.398 585.742 487.355C585.601 487.181 582.231 483.006 579.947 484.833C579.341 485.297 579.341 485.746 579.454 486.036C579.961 487.326 583.909 488.036 585.559 487.833L585.63 487.79ZM580.384 485.21C581.865 484.325 584.008 486.355 584.882 487.282C583.063 487.282 580.243 486.587 579.933 485.833C579.933 485.833 579.849 485.615 580.229 485.325L580.384 485.21Z" fill="#6934FF"/>
<path d="M518.443 262.107C518.443 262.107 518.443 328 520.121 365.817C521.841 405.155 569.64 472.846 569.64 472.846L588.041 461.25C588.041 461.25 555.752 396.835 556.245 357.772C556.781 315.172 559.996 261.151 559.996 261.151L518.443 262.107Z" fill="#263238"/>
<path d="M590.409 461.235L570.035 474.02L564.945 468.816L587.364 453.452L590.409 461.235Z" fill="#6934FF"/>
<path opacity="0.4" d="M590.409 461.235L570.035 474.02L564.945 468.816L587.364 453.452L590.409 461.235Z" fill="white"/>
<path d="M494.671 156.543C494.671 156.543 481.346 193.91 496.151 262.615L559.996 261.165C560.222 251.091 553.045 202.085 561.519 154.412C554.411 153.189 547.233 152.448 540.03 152.194C530.984 151.844 521.926 152.043 512.902 152.788C506.739 153.55 500.643 154.805 494.671 156.543Z" fill="#6934FF"/>
<path d="M536.745 120.784C535.222 129.785 533.855 146.28 540.087 152.136C540.087 152.136 537.887 161.34 521.672 161.645C508.714 161.891 512.958 152.73 512.958 152.73C522.645 150.121 522.236 142.7 520.389 135.772L536.745 120.784Z" fill="#FF8B7B"/>
<path opacity="0.2" d="M530.076 126.886L520.403 135.757C520.854 137.369 521.166 139.018 521.334 140.685C525.042 140.062 530.076 135.743 530.386 131.728C530.571 130.108 530.466 128.467 530.076 126.886Z" fill="black"/>
<path opacity="0.2" d="M547.277 178.183L557.923 186.068C557.458 194.461 557.317 202.621 557.387 210.274C550.859 203.52 547.207 191.098 547.277 178.183Z" fill="black"/>
<path d="M537.76 147.657C537.76 147.657 534.7 155.224 520.417 161.659C522.714 162.608 524.794 164.039 526.522 165.861C528.251 167.683 529.591 169.856 530.456 172.24C530.456 172.24 540.848 162.094 543.626 151.948L537.76 147.657Z" fill="white"/>
<path d="M509.743 169.501C509.743 169.501 514.114 162.978 520.417 161.659C518.203 158.876 515.919 152.701 518.034 149.774C516.176 150.277 514.376 150.982 512.662 151.875C512.662 151.875 504.089 157.166 509.743 169.501Z" fill="white"/>
<path d="M508.488 95.0126C502.665 97.5782 499.775 113.696 507.36 117.204C514.946 120.712 519.515 90.1714 508.488 95.0126Z" fill="#263238"/>
<path d="M537.506 107.261C537.027 119.436 537.351 126.582 531.514 132.945C522.73 142.526 508.023 137.294 504.949 125.22C502.129 114.349 503.427 96.2302 514.89 91.1861C517.414 90.0504 520.178 89.5969 522.921 89.8689C525.663 90.1408 528.293 91.1291 530.559 92.7399C532.825 94.3506 534.653 96.5302 535.869 99.0717C537.085 101.613 537.649 104.432 537.506 107.261Z" fill="#FF8B7B"/>
<path d="M519.642 111.044C519.642 112.029 519.176 112.841 518.542 112.856C517.907 112.87 517.385 112.073 517.371 111.087C517.357 110.102 517.837 109.29 518.471 109.275C519.106 109.261 519.627 110.044 519.642 111.044Z" fill="#263238"/>
<path d="M508.757 111.276C508.757 112.261 508.291 113.073 507.657 113.088C507.022 113.102 506.501 112.319 506.487 111.319C506.473 110.319 506.952 109.522 507.586 109.507C508.221 109.493 508.743 110.29 508.757 111.276Z" fill="#263238"/>
<path d="M512.239 111.696C511.151 114.746 509.662 117.629 507.812 120.262C508.478 120.73 509.236 121.043 510.033 121.178C510.829 121.313 511.645 121.268 512.422 121.045L512.239 111.696Z" fill="#FF5652"/>
<path d="M515.285 123.712C516.58 123.723 517.859 123.413 519.013 122.807C520.166 122.201 521.161 121.319 521.912 120.233C521.932 120.201 521.945 120.166 521.951 120.128C521.957 120.091 521.955 120.052 521.946 120.016C521.936 119.979 521.92 119.944 521.897 119.915C521.874 119.885 521.846 119.86 521.813 119.842C521.751 119.803 521.677 119.791 521.606 119.807C521.535 119.823 521.473 119.867 521.432 119.929C520.722 120.923 519.794 121.73 518.724 122.287C517.653 122.843 516.47 123.133 515.271 123.132C515.234 123.134 515.197 123.144 515.164 123.16C515.13 123.176 515.1 123.199 515.075 123.227C515.05 123.256 515.031 123.289 515.019 123.325C515.006 123.361 515.001 123.399 515.003 123.437C515.006 123.511 515.038 123.581 515.09 123.632C515.143 123.684 515.212 123.712 515.285 123.712Z" fill="#263238"/>
<path d="M522.842 107.362C522.97 107.358 523.093 107.312 523.195 107.232C523.31 107.135 523.384 106.996 523.399 106.844C523.415 106.692 523.372 106.539 523.279 106.42C522.738 105.683 522.034 105.089 521.224 104.688C520.415 104.287 519.524 104.091 518.626 104.115C518.477 104.129 518.338 104.203 518.242 104.321C518.145 104.439 518.098 104.592 518.112 104.746C518.125 104.9 518.197 105.042 518.312 105.141C518.427 105.24 518.575 105.288 518.725 105.275C519.435 105.268 520.136 105.432 520.772 105.755C521.409 106.077 521.963 106.548 522.391 107.13C522.443 107.203 522.511 107.262 522.589 107.302C522.668 107.343 522.754 107.363 522.842 107.362Z" fill="#263238"/>
<path d="M503.906 107.536C504.015 107.535 504.121 107.503 504.212 107.444C504.304 107.386 504.379 107.302 504.428 107.203C504.706 106.523 505.14 105.924 505.692 105.454C506.245 104.985 506.899 104.66 507.6 104.507C507.749 104.482 507.882 104.398 507.972 104.273C508.062 104.149 508.1 103.993 508.08 103.84C508.052 103.689 507.97 103.554 507.85 103.462C507.729 103.371 507.58 103.33 507.431 103.347C506.554 103.541 505.734 103.947 505.04 104.532C504.346 105.117 503.798 105.863 503.441 106.71C503.408 106.778 503.389 106.853 503.384 106.929C503.38 107.005 503.391 107.081 503.416 107.153C503.441 107.224 503.479 107.29 503.53 107.346C503.58 107.402 503.641 107.447 503.709 107.478C503.77 107.51 503.837 107.53 503.906 107.536Z" fill="#263238"/>
<path d="M563.563 163.065C566.228 167.008 568.569 170.863 570.98 174.835C573.391 178.806 575.619 182.807 577.832 186.865C582.321 195.085 586.314 203.581 589.789 212.304C590.24 213.391 590.635 214.55 591.044 215.681L591.664 217.391L591.975 218.261L592.341 219.45C593.24 222.574 593.565 225.842 593.3 229.088C592.742 234.761 590.903 240.221 587.928 245.033C585.338 249.329 582.257 253.29 578.749 256.831C577.071 258.571 575.294 260.18 573.489 261.731C571.661 263.282 569.755 264.733 567.779 266.079L562.04 259.006C563.295 257.556 564.719 255.759 565.988 254.092C567.257 252.425 568.498 250.642 569.668 248.903C571.95 245.56 573.91 241.997 575.52 238.264C576.923 235.156 577.658 231.775 577.677 228.349C577.627 227.042 577.36 225.752 576.888 224.537L575.76 221.957C575.322 221 574.928 220.029 574.448 219.058C570.81 211.304 566.609 203.592 562.195 195.968C557.782 188.344 553.157 180.691 548.575 173.371L563.563 163.065Z" fill="#FF8B7B"/>
<path d="M561.519 154.441C572.672 156.919 588.718 192.286 588.718 192.286L558.84 207.274C553.526 198.919 549.11 189.996 545.67 180.662C540.467 165.718 549.576 151.774 561.519 154.441Z" fill="#6934FF"/>
<path d="M550.901 245.395L580.92 336.552C582.087 340.13 581.83 344.036 580.205 347.419C578.581 350.803 575.721 353.388 572.249 354.612L370.464 424.941C366.98 426.142 363.175 425.876 359.882 424.2C356.59 422.523 354.077 419.574 352.895 415.997L322.89 324.869C322.312 323.142 322.073 321.315 322.185 319.492C322.347 316.66 323.325 313.941 324.995 311.683C326.665 309.424 328.951 307.728 331.562 306.809L533.389 236.481C536.003 235.577 538.819 235.494 541.479 236.242C544.138 236.991 546.52 238.538 548.321 240.684C549.475 242.064 550.352 243.665 550.901 245.395Z" fill="#6934FF"/>
<path opacity="0.8" d="M550.901 245.395L580.92 336.552C582.087 340.13 581.83 344.036 580.205 347.419C578.581 350.803 575.721 353.388 572.249 354.612L370.464 424.941C366.98 426.142 363.175 425.876 359.882 424.2C356.59 422.523 354.077 419.574 352.895 415.997L322.89 324.869C322.312 323.142 322.073 321.315 322.185 319.492C322.347 316.66 323.325 313.941 324.995 311.683C326.665 309.424 328.951 307.728 331.562 306.809L533.389 236.481C536.003 235.577 538.819 235.494 541.479 236.242C544.138 236.991 546.52 238.538 548.321 240.684C549.475 242.064 550.352 243.665 550.901 245.395Z" fill="white"/>
<path opacity="0.6" d="M548.265 240.684L464.779 317.434C460.582 321.288 455.671 324.231 450.34 326.087C445.01 327.942 439.37 328.672 433.759 328.232L322.115 319.535C322.277 316.703 323.255 313.985 324.925 311.726C326.594 309.468 328.88 307.771 331.491 306.852L533.319 236.524C535.93 235.612 538.747 235.521 541.409 236.262C544.071 237.002 546.458 238.542 548.265 240.684Z" fill="#6934FF"/>
<path d="M565.058 257.31L552.227 257.397L560.137 270.717C560.137 270.717 569.273 268.442 570.119 263.716L565.058 257.31Z" fill="#FF8B7B"/>
<path d="M544.204 265.209L551.24 275.921L560.137 270.717L552.227 257.397L544.204 265.209Z" fill="#FF8B7B"/>
<path d="M545.585 97.5057C548.405 105.449 539.875 123.843 534.912 123.495C529.948 123.147 528.595 104.028 531.415 99.2741C528.736 100.55 503.215 100.593 503.342 97.8246C503.99 87.7653 521.347 84.1127 540.382 89.1278C545.332 88.8814 547.179 90.2729 545.585 97.5057Z" fill="#263238"/>
<path d="M543.118 120.523C542.363 121.827 541.363 122.964 540.177 123.867C538.991 124.77 537.642 125.422 536.209 125.785C532.374 126.742 530.569 123.19 531.782 119.538C532.839 116.247 536.11 111.797 539.917 112.464C543.724 113.131 544.979 117.291 543.118 120.523Z" fill="#FF8B7B"/>
<path d="M488.128 92.766L546.7 99.7234C546.995 99.7561 547.29 99.6679 547.523 99.478C547.755 99.2881 547.905 99.0117 547.94 98.7088C547.972 98.4077 547.889 98.1056 547.707 97.8673C547.525 97.6289 547.26 97.4731 546.968 97.4333L488.382 90.4903C488.089 90.4574 487.795 90.5436 487.563 90.7305C487.332 90.9174 487.18 91.1902 487.141 91.4904C487.109 91.7938 487.195 92.0978 487.38 92.3365C487.565 92.5753 487.834 92.7296 488.128 92.766Z" fill="#6934FF"/>
<path d="M547.941 98.6508L548.956 89.6641C548.945 88.6815 548.577 87.7385 547.925 87.0199C547.273 86.3013 546.384 85.859 545.431 85.7795L509.462 78.7931C506.797 78.2713 504.343 79.8077 504.357 81.9819V93.4907L547.941 98.6508Z" fill="#6934FF"/>
<path d="M507.713 90.8382L522.941 92.65L523.463 88.0842L507.727 86.2289L507.713 90.8382Z" fill="white"/>
</svg>
