<svg width="711" height="737" viewBox="0 0 711 737" fill="none" xmlns="http://www.w3.org/2000/svg">
<path d="M31.5652 49.0996L53.8477 48.6241L65.1588 48.4373C68.9462 48.4373 72.7335 48.4373 76.5378 48.4373H77.2851V49.2015L77.387 68.2062V69.0554H76.5378L54.1025 68.8516C46.5957 68.8516 39.1059 68.6647 31.6162 68.5628H31.1406V68.1043C31.1406 64.8774 31.2935 61.6845 31.3614 58.5085L31.5652 49.0996ZM31.5652 49.0996L31.803 58.7124C31.803 61.8713 31.9898 64.9963 32.0238 68.1043L31.5652 67.6457C39.055 67.6457 46.5448 67.374 54.0515 67.374L76.5378 67.2551L75.6887 68.1043L75.7736 49.0996L76.5378 49.8639C72.8184 49.8639 69.133 49.8639 65.4136 49.762L54.2383 49.5752L31.5652 49.0996Z" fill="#EBEBEB"/>
<path d="M56.6503 25.1357L78.9329 24.6602L90.2439 24.4734C94.0313 24.4734 97.8356 24.4734 101.623 24.4734H102.37V25.2377L102.472 44.2423V45.0915H101.657L79.1367 44.8537C71.6299 44.8537 64.1401 44.6669 56.6503 44.565H56.1748V44.1064C56.1748 40.8796 56.3277 37.6866 56.3956 34.5107L56.6503 25.1357ZM56.6503 25.1357L56.8881 34.7485C56.8881 37.9074 57.0749 41.0324 57.1089 44.1404L56.6503 43.6819C64.1401 43.6819 71.6299 43.4101 79.1367 43.4101L101.657 43.2912L100.808 44.1404V25.1357L101.572 25.9C97.8696 25.9 94.1672 25.9 90.4477 25.7981L79.2725 25.6113L56.6503 25.1357Z" fill="#EBEBEB"/>
<path d="M100.264 269.309L122.547 268.834L133.858 268.647C137.645 268.562 141.449 268.647 145.237 268.545H145.984V269.309L146.086 288.314V289.163H145.237L122.75 289.044C115.244 289.044 107.754 288.857 100.264 288.772H99.7886V288.314C99.7886 285.087 99.9414 281.877 100.009 278.701L100.264 269.309ZM100.264 269.309L100.502 278.905C100.502 282.064 100.689 285.206 100.723 288.314L100.264 287.838C107.754 287.838 115.244 287.567 122.75 287.567L145.237 287.465L144.388 288.314V269.309L145.152 270.056C141.432 270.056 137.747 270.056 134.028 270.056L122.852 269.87L100.264 269.309Z" fill="#EBEBEB"/>
<path d="M125.434 245.345L147.717 244.87L159.028 244.683C162.815 244.683 166.619 244.683 170.407 244.581H171.154V245.345L171.256 264.35V265.199H170.407L147.92 265.08C140.414 265.08 132.924 264.893 125.434 264.809H124.958V264.35C124.958 261.123 125.111 257.913 125.196 254.737L125.434 245.345ZM125.434 245.345L125.672 254.941C125.672 258.1 125.859 261.242 125.893 264.35L125.434 263.942C132.924 263.857 140.414 263.688 147.92 263.671L170.407 263.569L169.557 264.418V245.413L170.322 246.161C166.619 246.161 162.917 246.161 159.197 246.076L148.022 245.889L125.434 245.345Z" fill="#EBEBEB"/>
<path d="M6.54836 25.1357L28.8479 24.6602L40.074 24.4734C43.8444 24.4734 47.6487 24.4734 51.4361 24.4734H52.2003V25.2377L52.2852 44.2423V45.0915H51.4191L28.9497 44.8537C21.46 44.8537 13.9702 44.6669 6.46344 44.565H6.00488V44.1064C6.00488 40.8796 6.15774 37.6866 6.22567 34.5107L6.54836 25.1357ZM6.54836 25.1357L6.80311 34.7485C6.80311 37.9074 6.98993 41.0324 7.0239 44.1404L6.54836 43.6819C14.0551 43.6819 21.5449 43.4101 29.0347 43.4101L51.521 43.2912L50.6718 44.1404L50.7058 25.1357L51.4531 25.9C47.7506 25.9 44.0652 25.9 40.3458 25.7981L29.1705 25.6113L6.54836 25.1357Z" fill="#EBEBEB"/>
<path d="M674.463 437.872L652.181 438.347L640.87 438.551C637.082 438.551 633.295 438.551 629.491 438.636H628.743V437.872L628.642 418.884V418.018H629.491L651.977 418.12C659.484 418.12 666.974 418.307 674.463 418.391H674.939V418.85C674.939 422.06 674.786 425.27 674.718 428.446L674.463 437.872ZM674.463 437.872L674.226 428.276C674.226 425.117 674.039 421.992 674.005 418.884L674.463 419.343C666.974 419.427 659.484 419.614 651.977 419.614L629.491 419.716L630.34 418.884L630.255 437.872L629.491 437.124C633.21 437.124 636.896 437.124 640.615 437.124L651.79 437.328L674.463 437.872Z" fill="#EBEBEB"/>
<path d="M699.565 461.836L677.266 462.311L665.955 462.515C662.168 462.515 658.38 462.515 654.593 462.6H653.829V461.836L653.744 442.831V441.982H654.61L677.096 442.084C684.586 442.084 692.076 442.27 699.582 442.355H700.041V442.797C700.041 446.024 699.888 449.234 699.82 452.41L699.565 461.836ZM699.565 461.836L699.311 452.24C699.311 449.081 699.124 445.956 699.09 442.831L699.565 443.306C692.059 443.391 684.569 443.578 677.079 443.578L654.593 443.68L655.442 442.831L655.323 461.836L654.576 461.088C658.278 461.088 661.964 461.088 665.683 461.173L676.858 461.377L699.565 461.836Z" fill="#EBEBEB"/>
<path d="M76.9116 461.836L54.6291 462.311L43.3181 462.515C39.5307 462.515 35.7264 462.515 31.939 462.6H31.1917V461.836L31.0898 442.831V441.982H32.0239L54.5103 442.084C62.017 442.084 69.5068 442.27 76.9966 442.355H77.4721V442.797C77.4721 446.024 77.3193 449.234 77.2343 452.41L76.9116 461.836ZM76.9116 461.836L76.6739 452.24C76.6739 449.081 76.4871 445.956 76.4531 442.831L76.9116 443.306C69.4219 443.391 61.9321 443.578 54.4253 443.578L32.0239 443.68L32.8731 442.831L32.7882 461.836L32.0239 461.088C35.7264 461.088 39.4288 461.088 43.1482 461.173L54.3234 461.377L76.9116 461.836Z" fill="#EBEBEB"/>
<path d="M629.304 25.1357L651.604 24.6602L662.915 24.4734C666.685 24.4734 670.49 24.4734 674.277 24.4734H675.041V25.2377L675.126 44.2423V45.0915H674.277L651.791 44.8537C644.301 44.8537 636.794 44.6669 629.304 44.565H628.846V44.1064C628.846 40.8796 628.982 37.6866 629.066 34.5107L629.304 25.1357ZM629.304 25.1357L629.542 34.7485C629.627 37.9074 629.746 41.0324 629.763 44.1404L629.304 43.6819C636.794 43.6819 644.301 43.4101 651.791 43.4101L674.277 43.2912L673.428 44.1404L673.53 25.1357L674.277 25.9C670.574 25.9 666.872 25.9 663.17 25.7981L651.926 25.6113L629.304 25.1357Z" fill="#EBEBEB"/>
<path d="M693.825 317.916H467.705V2.13989H693.825V317.916ZM474.414 311.208H687.116V8.84842H474.414V311.208Z" fill="#EBEBEB"/>
<path d="M584.11 10.5977H577.402V314.553H584.11V10.5977Z" fill="#EBEBEB"/>
<path d="M699.922 15.71H461.625V25.051H699.922V15.71Z" fill="#EBEBEB"/>
<path d="M699.922 26.2227H461.625V35.5636H699.922V26.2227Z" fill="#EBEBEB"/>
<path d="M699.922 36.7185H461.625V46.0595H699.922V36.7185Z" fill="#EBEBEB"/>
<path d="M699.922 47.2314H461.625V56.5724H699.922V47.2314Z" fill="#EBEBEB"/>
<path d="M699.922 57.7441H461.625V67.0851H699.922V57.7441Z" fill="#EBEBEB"/>
<path d="M699.922 68.2571H461.625V77.5981H699.922V68.2571Z" fill="#EBEBEB"/>
<path d="M699.922 78.77H461.625V88.111H699.922V78.77Z" fill="#EBEBEB"/>
<path d="M699.922 89.2827H461.625V98.6237H699.922V89.2827Z" fill="#EBEBEB"/>
<path d="M699.922 99.7957H461.625V109.137H699.922V99.7957Z" fill="#EBEBEB"/>
<path d="M679.983 13.8076H678.302V195.617H679.983V13.8076Z" fill="#A6A6A6"/>
<path d="M682.123 203.43H676.162L677.656 194.87H680.628L682.123 203.43Z" fill="#A6A6A6"/>
<path d="M686.03 13.8076H684.348V241.473H686.03V13.8076Z" fill="#A6A6A6"/>
<path d="M688.169 247.774H682.208L683.703 239.214H686.675L688.169 247.774Z" fill="#A6A6A6"/>
<path d="M710.333 0.832031H451.214V20.3802H710.333V0.832031Z" fill="#DBDBDB"/>
<path d="M190.04 112.924H0.128906V124.201H190.04V112.924Z" fill="#EBEBEB"/>
<path d="M25.825 124.201H14.5479V161.497H25.825V124.201Z" fill="#EBEBEB"/>
<path d="M25.825 124.201H14.5479V135.733H25.825V124.201Z" fill="#DBDBDB"/>
<path d="M175.621 124.201H164.344V161.497H175.621V124.201Z" fill="#EBEBEB"/>
<path d="M175.621 124.201H164.344V135.733H175.621V124.201Z" fill="#DBDBDB"/>
<path d="M42.9443 112.924L42.9443 41.0493H24.8398L24.8398 112.924H42.9443Z" fill="#C7C7C7"/>
<path d="M42.9443 45.1254V37.228H24.8398V45.1254H42.9443Z" fill="#DBDBDB"/>
<path d="M42.9443 58.1689V55.2307H24.8398V58.1689H42.9443Z" fill="#DBDBDB"/>
<path d="M45.2036 103.498V95.6008H24.8572V103.498H45.2036Z" fill="#DBDBDB"/>
<path d="M55.5806 112.924L55.5806 29.093H42.9278L42.9278 112.924H55.5806Z" fill="#DBDBDB"/>
<path d="M52.9985 69.2253V36.9734H45.4069V69.2253H52.9985Z" fill="#EBEBEB"/>
<path d="M145.547 103.951L85.9287 45.0161L77.0335 54.0144L136.652 112.95L145.547 103.951Z" fill="#C7C7C7"/>
<path d="M129.832 91.8872L106.896 69.2134L101.558 74.6123L124.495 97.2861L129.832 91.8872Z" fill="#DBDBDB"/>
<path d="M77.0649 112.941V49.2693H55.5807V112.941H77.0649Z" fill="#A6A6A6"/>
<path d="M77.0649 106.181V100.254H55.5807V106.181H77.0649Z" fill="#C7C7C7"/>
<path d="M77.0649 96.3649V94.0552H55.5807V96.3649H77.0649Z" fill="#C7C7C7"/>
<path d="M24.8398 112.958L24.8398 53.1077H9.99616L9.99616 112.958H24.8398Z" fill="#A6A6A6"/>
<path d="M24.8398 106.589V101.019H9.99615V106.589H24.8398Z" fill="#C7C7C7"/>
<path d="M24.8398 70.9915V65.4209H9.99616V70.9915H24.8398Z" fill="#C7C7C7"/>
<path d="M24.8398 76.9868V74.8298H9.99615V76.9868H24.8398Z" fill="#C7C7C7"/>
<path d="M694.929 692.932C694.929 717.031 541.839 736.579 353.015 736.579C164.191 736.579 11.1006 717.031 11.1006 692.932C11.1006 668.832 164.191 649.284 353.015 649.284C541.839 649.284 694.929 668.832 694.929 692.932Z" fill="#EBEBEB"/>
<path d="M608.007 489.213C608.007 489.213 579.831 482.827 564.393 468.595C548.955 454.363 540.31 428.87 540.31 428.87C551.021 430.924 561.58 433.698 571.917 437.175C575.795 441.176 579.021 445.761 581.478 450.762C581.721 447.545 581.721 444.315 581.478 441.098C585.088 442.654 588.465 444.7 591.516 447.179C604.372 458.32 608.007 489.213 608.007 489.213Z" fill="#6934FF"/>
<path d="M557.905 441.251C554.067 438.602 550.16 436.037 546.339 433.354C546.101 433.201 546.339 432.828 546.56 432.98C553.829 437.311 560.979 441.948 567.908 446.805C570.32 448.503 572.698 450.253 575.042 452.053L574.549 451.221C573.7 449.811 572.851 448.418 571.917 447.026C570.152 444.202 568.152 441.532 565.938 439.044C565.853 438.959 565.938 438.823 566.074 438.908C568.265 441.438 570.456 444.003 572.46 446.635C573.411 447.909 574.294 449.234 575.143 450.575C575.585 451.289 576.01 451.985 576.4 452.715L576.825 453.429C580.476 456.299 584.026 459.288 587.406 462.43C589.5 464.377 591.521 466.393 593.469 468.476C592.365 465.079 591.414 461.683 590.157 458.286C590.157 458.167 590.31 458.116 590.344 458.286C591.567 461.802 592.908 465.351 593.859 468.969C596.016 471.295 598.088 473.707 600.024 476.238L599.922 475.779C599.6 474.437 599.277 473.113 598.92 471.805C598.241 469.257 597.477 466.71 596.628 464.213C595.003 459.027 592.435 454.184 589.053 449.93C588.968 449.828 589.053 449.692 589.189 449.794C594.468 456.38 598.163 464.091 599.99 472.331C600.296 473.52 600.568 474.726 600.84 475.932C600.992 476.577 601.162 477.223 601.264 477.885C602.113 479.04 602.963 480.195 603.761 481.384C608.544 488.734 612.53 496.574 615.649 504.77C619.191 513.962 622.23 523.339 624.753 532.861C624.742 532.891 624.723 532.917 624.697 532.935C624.671 532.954 624.64 532.964 624.608 532.964C624.576 532.964 624.545 532.954 624.52 532.935C624.494 532.917 624.474 532.891 624.464 532.861C618.944 516.37 613.323 499.641 603.88 484.916C601.889 481.803 599.741 478.793 597.443 475.898C592.775 475.599 588.166 474.685 583.737 473.181C578.906 471.543 574.296 469.313 570.014 466.54C567.574 464.891 565.222 463.117 562.966 461.224C562.951 461.219 562.937 461.21 562.926 461.198C562.915 461.186 562.907 461.172 562.903 461.157C562.898 461.141 562.897 461.125 562.9 461.109C562.903 461.093 562.91 461.078 562.92 461.066C562.93 461.053 562.943 461.043 562.957 461.036C562.972 461.029 562.988 461.026 563.004 461.026C563.02 461.027 563.036 461.031 563.05 461.039C563.064 461.047 563.076 461.058 563.085 461.071C567.022 464.25 571.369 466.883 576.01 468.901C580.564 470.991 585.33 472.585 590.225 473.656C592.297 474.115 594.42 474.454 596.526 474.743C593.92 471.532 591.148 468.459 588.221 465.538C587.27 464.587 586.285 463.67 585.3 462.753C582.016 460.456 578.531 458.461 574.889 456.791C570.269 454.55 565.717 452.189 561.149 449.862C558.567 448.554 556.054 447.213 553.421 445.939C553.302 445.939 553.421 445.735 553.523 445.786C558.143 448.028 562.847 450.117 567.518 452.257C572.188 454.397 576.383 456.299 580.595 458.66L581.139 458.982C577.317 455.586 573.36 452.495 569.25 449.437C565.548 446.686 561.76 443.969 557.905 441.251Z" fill="#263238"/>
<path d="M559.519 455.857C561.811 456.859 564.138 457.742 566.414 458.812C568.69 459.882 570.949 461.173 573.207 462.481C573.217 462.486 573.226 462.494 573.233 462.503C573.241 462.512 573.246 462.522 573.249 462.533C573.252 462.544 573.253 462.556 573.252 462.567C573.25 462.579 573.247 462.59 573.241 462.6C573.236 462.61 573.228 462.619 573.219 462.626C573.21 462.633 573.2 462.638 573.189 462.641C573.178 462.645 573.166 462.645 573.155 462.644C573.144 462.643 573.133 462.639 573.122 462.634C570.881 461.564 568.605 460.562 566.329 459.441C564.053 458.32 561.794 457.063 559.451 456.044C559.349 455.857 559.4 455.738 559.519 455.857Z" fill="#263238"/>
<path d="M699.48 347.162C694.25 353.871 691.277 362.063 690.989 370.566C690.904 373.096 691.294 376.629 691.6 380.756C684.565 384.837 678.332 390.167 673.207 396.483C678.831 393.214 685.292 391.667 691.787 392.033C691.642 394.886 691.284 397.725 690.717 400.525C686.639 400.537 682.602 401.338 678.828 402.885C682.527 402.847 686.193 403.575 689.596 405.025C684.501 421.007 669.657 437.43 628.455 444.393C624.091 424.793 626.672 404.285 635.758 386.377C648.139 362.04 699.48 347.162 699.48 347.162Z" fill="#6934FF"/>
<path d="M614.223 512.736C614.936 505.942 615.825 499.149 616.889 492.355C618.976 478.773 621.748 465.305 625.194 452.002C626.815 445.758 628.805 439.616 631.156 433.609C631.037 432.515 630.986 431.414 631.003 430.314C631.003 428.989 631.003 427.665 631.003 426.34C631.003 423.707 631.156 421.075 631.376 418.442C631.794 413.224 632.641 408.05 633.907 402.97C634.671 400.032 635.605 397.145 636.404 394.241C636.411 394.223 636.425 394.207 636.441 394.196C636.458 394.185 636.477 394.18 636.497 394.18C636.517 394.18 636.536 394.185 636.553 394.196C636.569 394.207 636.582 394.223 636.59 394.241C635.215 399.31 634.193 404.468 633.533 409.679C632.803 414.809 632.344 419.973 632.158 425.151C632.158 426.561 632.073 427.987 632.073 429.397C632.073 430.008 632.073 430.62 632.073 431.214C634.102 426.292 636.421 421.494 639.019 416.846C643.208 409.478 647.925 402.423 653.132 395.735C653.143 394.954 653.257 394.177 653.472 393.426C653.659 392.508 653.863 391.591 654.067 390.657C654.491 388.789 654.967 386.904 655.476 385.053C656.495 381.316 657.854 377.699 659.026 374.013C659.034 373.995 659.047 373.98 659.063 373.969C659.08 373.958 659.099 373.952 659.119 373.952C659.139 373.952 659.158 373.958 659.175 373.969C659.192 373.98 659.205 373.995 659.213 374.013C658.126 377.665 657.395 381.452 656.563 385.172C656.139 387.006 655.748 388.84 655.34 390.691C655.137 391.608 654.933 392.525 654.746 393.443C654.746 393.443 654.746 393.595 654.746 393.663C656.41 391.557 658.109 389.485 659.841 387.447C667.704 378.208 676.332 369.682 685.028 361.242C686.098 360.189 687.185 359.187 688.272 358.151C688.272 358.151 688.492 358.151 688.407 358.303C680.102 366.965 671.933 375.712 664.189 384.883C662.338 387.074 660.537 389.282 658.754 391.506L661.573 389.638C663.968 388.076 666.397 386.547 668.893 385.155C671.39 383.762 673.988 382.369 676.485 381.096C678.981 379.822 681.954 378.718 684.518 377.24C684.62 377.24 684.722 377.359 684.603 377.41C681.997 378.613 679.483 380.003 677.079 381.571C674.566 383.066 672.069 384.56 669.607 386.123C667.144 387.685 664.749 389.18 662.338 390.742C660.333 392.05 658.363 393.477 656.274 394.665C651.495 400.808 647.083 407.228 643.061 413.891C640.577 418.092 638.309 422.417 636.268 426.849L637.745 426.204L641.533 424.506C643.944 423.436 646.39 422.383 648.819 421.33C653.438 419.309 658.143 417.474 662.677 415.267C665.233 414.061 667.707 412.688 670.082 411.156C670.184 411.156 670.269 411.157 670.167 411.326C661.675 417.152 652.232 421.245 642.891 425.389L638.832 427.189C637.711 427.682 636.59 428.225 635.436 428.667C632.662 434.863 630.329 441.248 628.455 447.773C624.773 460.9 621.779 474.211 619.488 487.651C617.127 501.119 615.531 514.672 614.291 528.293C614.138 529.991 613.985 531.689 613.781 533.388C613.759 533.513 613.693 533.627 613.595 533.709C613.497 533.791 613.374 533.835 613.246 533.835C613.119 533.835 612.995 533.791 612.898 533.709C612.8 533.627 612.734 533.513 612.711 533.388C612.864 526.526 613.493 519.614 614.223 512.736Z" fill="#263238"/>
<path d="M639.307 398.877C640.055 394.682 641.175 390.589 642.296 386.479C642.296 386.36 642.517 386.479 642.483 386.479C641.447 390.504 640.7 394.614 639.936 398.69C639.171 402.766 638.492 407.046 637.898 411.241C637.898 411.241 637.779 411.326 637.779 411.241C638.053 407.094 638.563 402.966 639.307 398.877Z" fill="#263238"/>
<path d="M657.021 410.239C659.891 408.339 662.887 406.637 665.989 405.144C667.483 404.38 669.012 403.632 670.523 402.902C672.035 402.172 673.733 401.51 675.296 400.728C675.397 400.728 675.482 400.83 675.296 400.881C673.784 401.645 672.357 402.579 670.88 403.361L666.294 405.874C663.288 407.488 660.316 409.271 657.157 410.596C657.121 410.586 657.089 410.567 657.061 410.542C657.034 410.517 657.013 410.486 656.999 410.452C656.986 410.417 656.981 410.38 656.985 410.343C656.989 410.306 657.001 410.27 657.021 410.239Z" fill="#263238"/>
<path opacity="0.1" d="M607.497 440.402C607.497 440.402 581.427 434.169 569.454 416.625C558.024 399.93 554.321 371.449 554.033 368.935C554.491 371.245 559.875 396.109 577.623 407.726C591.227 416.659 604.372 423.962 607.497 440.402Z" fill="#263238"/>
<path d="M607.497 440.402C607.497 440.402 581.427 434.169 569.454 416.625C558.024 399.93 554.321 371.449 554.032 368.935C554.024 368.879 554.024 368.822 554.032 368.765C554.032 368.765 566.532 386.547 579.678 391.082C592.823 395.616 611.267 411.343 607.497 440.402Z" fill="#6934FF"/>
<path d="M558.618 378.616C560.958 383.408 563.655 388.018 566.686 392.406C569.723 396.57 573.33 400.286 577.402 403.446C580.952 406.265 584.688 408.813 588.272 411.564V411.428C587.592 410.443 586.879 409.458 586.132 408.524C584.637 406.605 583.007 404.805 581.359 403.021C578.133 399.506 574.821 396.058 571.917 392.254C570.297 390.137 568.897 387.86 567.739 385.46C567.739 385.341 567.857 385.29 567.908 385.46C572.137 394.275 580.595 399.913 586.59 407.352C587.443 408.41 588.242 409.509 588.985 410.647C589.583 411.473 590.09 412.361 590.497 413.296C593.799 415.945 596.785 418.965 599.396 422.298C599.17 420.576 598.818 418.873 598.343 417.203C597.741 414.879 596.808 412.655 595.575 410.596C595.575 410.494 595.677 410.375 595.745 410.494C597.003 412.557 598.023 414.756 598.785 417.05C599.336 418.876 599.655 420.765 599.736 422.671C601.027 424.424 602.207 426.256 603.268 428.157C603.149 427.597 603.047 427.036 602.946 426.459C602.419 423.86 601.859 421.262 601.247 418.697C600.017 413.477 597.897 408.507 594.98 404.006C594.895 403.904 594.98 403.802 595.133 403.904C598.124 408.337 600.463 413.176 602.079 418.273C602.912 420.837 603.574 423.368 604.168 426.068C604.457 427.342 604.712 428.633 604.95 429.923C605.086 430.586 605.221 431.282 605.34 431.961C607.922 437.642 609.935 443.564 611.352 449.641C613.908 460.499 615.763 471.51 616.906 482.606C618.253 494.224 618.854 505.915 618.706 517.61C618.706 519.087 618.587 520.548 618.52 522.008C618.52 522.382 617.925 522.45 617.908 522.008C617.653 516.217 617.501 510.426 617.161 504.651C616.821 498.877 616.312 493.102 615.7 487.328C614.51 475.999 612.696 464.744 610.266 453.615C608.143 444.088 605.408 434.492 600.194 426.136C597.605 421.978 594.437 418.209 590.785 414.944C587.134 411.666 583.143 408.796 579.287 405.756C575.381 402.782 571.836 399.362 568.724 395.565C565.542 391.354 562.767 386.85 560.436 382.114L558.567 378.582C558.398 378.616 558.516 378.514 558.618 378.616Z" fill="#263238"/>
<path d="M563.119 382.454C564.834 385.972 566.774 389.376 568.927 392.644C568.927 392.644 568.927 392.797 568.808 392.644C566.569 389.417 564.603 386.009 562.932 382.454C562.881 382.403 563.068 382.335 563.119 382.454Z" fill="#263238"/>
<path d="M703.182 428.87C703.182 428.87 703.607 465.928 681.443 476.611C659.28 487.294 647.476 478.411 632.361 481.995C632.938 481.112 643.689 465.657 660.774 461.411C678.369 457.012 697.782 444.308 703.182 428.87Z" fill="#6934FF"/>
<path opacity="0.1" d="M703.182 428.87C703.182 428.87 703.607 465.928 681.443 476.611C659.28 487.294 647.476 478.411 632.361 481.995C640.317 478.199 648.823 475.683 657.565 474.539C671.542 472.841 698.223 463.754 703.182 428.87Z" fill="black"/>
<path d="M630.9 482.658C633.532 480.247 636.502 478.233 639.715 476.679C640.173 476.459 640.666 476.272 641.159 476.068C641.384 475.769 641.627 475.486 641.889 475.219C642.568 474.522 643.248 473.86 643.978 473.232C645.372 472.035 646.866 470.961 648.445 470.022C652.113 467.865 656.138 466.353 659.891 464.349C659.993 464.349 660.095 464.451 659.976 464.519C658.125 465.47 656.325 466.54 654.525 467.593C652.724 468.646 650.975 469.597 649.26 470.701C647.725 471.69 646.26 472.786 644.878 473.979C644.487 474.319 644.114 474.692 643.74 475.066C646.191 474.243 648.693 473.579 651.23 473.079C655.289 472.264 659.382 471.686 663.441 470.82C665.426 470.395 667.387 469.868 669.317 469.24C671.152 467.746 672.986 466.285 674.735 464.672C676.839 462.74 678.756 460.613 680.459 458.32C680.459 458.235 680.696 458.32 680.611 458.422C677.926 462.058 674.889 465.42 671.542 468.459C672.493 468.086 673.427 467.695 674.361 467.27C681.976 463.861 688.509 458.427 693.247 451.561C693.247 451.459 693.485 451.561 693.417 451.662C689.387 457.554 684.183 462.55 678.132 466.336C675.104 468.228 671.867 469.761 668.485 470.905C664.557 472.122 660.551 473.069 656.495 473.741C652.521 474.386 648.599 475.317 644.759 476.526C641.224 477.725 637.899 479.473 634.909 481.706C629.268 486.091 624.721 491.724 621.627 498.164C617.656 506.738 615.18 515.928 614.307 525.337C614.307 525.728 613.662 525.728 613.679 525.337C614.715 509.678 618.893 493.459 630.9 482.658Z" fill="#263238"/>
<path d="M656.614 470.565C657.769 468.837 659.332 467.419 661.165 466.438C663.267 465.341 665.113 463.813 666.583 461.954C666.583 461.852 666.821 461.954 666.736 462.056C665.406 463.75 663.791 465.198 661.964 466.336C659.952 467.407 658.179 468.875 656.75 470.65C656.682 470.735 656.546 470.65 656.614 470.565Z" fill="#263238"/>
<path d="M644.844 510.001L643.842 530.381L640.751 592.626H594.267L591.176 530.381L590.174 510.001H644.844Z" fill="#37474F"/>
<path d="M644.844 510.001L643.842 530.381H591.176L590.174 510.001H644.844Z" fill="#263238"/>
<path d="M648.105 501.492H586.913V520.938H648.105V501.492Z" fill="#37474F"/>
<path d="M0.128906 592.627L88.3418 592.219L176.572 592.066L353.015 591.777L529.457 592.066L617.687 592.219L705.9 592.627L617.687 593.051L529.457 593.204L353.015 593.476L176.572 593.187L88.3418 593.051L0.128906 592.627Z" fill="#263238"/>
<path d="M565.683 638.024V46.0936C565.683 34.003 555.882 24.2017 543.791 24.2017L162.254 24.2017C150.164 24.2017 140.362 34.003 140.362 46.0936L140.362 638.024C140.362 650.114 150.164 659.916 162.254 659.916H543.791C555.882 659.916 565.683 650.114 565.683 638.024Z" fill="#263238"/>
<path d="M547.731 68.699H158.79V615.809H547.731V68.699Z" fill="white"/>
<path d="M399.278 51.2056V48.8449C399.278 47.6724 398.327 46.7219 397.155 46.7219L308.84 46.7219C307.668 46.7219 306.717 47.6724 306.717 48.8449V51.2056C306.717 52.3781 307.668 53.3286 308.84 53.3286L397.155 53.3286C398.327 53.3286 399.278 52.3781 399.278 51.2056Z" fill="#37474F"/>
<path d="M353.014 649.284C359.627 649.284 364.988 643.923 364.988 637.31C364.988 630.698 359.627 625.337 353.014 625.337C346.402 625.337 341.041 630.698 341.041 637.31C341.041 643.923 346.402 649.284 353.014 649.284Z" fill="#37474F"/>
<path d="M487.814 143.834H218.725V147.622H487.814V143.834Z" fill="#EBEBEB"/>
<path d="M487.814 155.587H218.725V159.374H487.814V155.587Z" fill="#EBEBEB"/>
<path d="M487.814 513.483H218.725V517.27H487.814V513.483Z" fill="#EBEBEB"/>
<path d="M487.814 525.236H218.725V529.023H487.814V525.236Z" fill="#EBEBEB"/>
<path d="M284.146 566.013C291.012 566.013 296.578 560.447 296.578 553.581C296.578 546.715 291.012 541.149 284.146 541.149C277.28 541.149 271.714 546.715 271.714 553.581C271.714 560.447 277.28 566.013 284.146 566.013Z" fill="#6934FF"/>
<path d="M284.35 560.833L276.945 553.343L279.441 550.881L283.755 555.262L292.757 541.166L295.695 543.051L284.35 560.833Z" fill="white"/>
<path d="M315.277 553.479C315.285 552.587 315.446 551.702 315.752 550.864C316.067 550.009 316.546 549.224 317.162 548.554C317.817 547.813 318.626 547.223 319.533 546.827C320.439 546.431 321.421 546.238 322.41 546.261C323.601 546.24 324.776 546.546 325.807 547.144C326.729 547.68 327.478 548.47 327.964 549.42L325.841 550.966C325.671 550.582 325.435 550.231 325.144 549.93C324.888 549.67 324.596 549.447 324.278 549.267C323.966 549.108 323.635 548.989 323.293 548.911C322.963 548.844 322.628 548.809 322.291 548.809C321.653 548.792 321.022 548.938 320.457 549.233C319.945 549.501 319.499 549.878 319.149 550.337C318.799 550.802 318.535 551.325 318.368 551.883C317.983 553.04 317.983 554.292 318.368 555.449C318.557 556.019 318.85 556.549 319.234 557.012C319.609 557.455 320.064 557.824 320.576 558.099C321.101 558.367 321.684 558.507 322.274 558.506C322.618 558.501 322.96 558.455 323.293 558.37C323.644 558.297 323.982 558.171 324.295 557.997C324.618 557.81 324.915 557.582 325.178 557.317C325.456 557.019 325.681 556.674 325.841 556.298L328.133 557.623C327.906 558.166 327.571 558.657 327.148 559.067C326.722 559.483 326.235 559.832 325.705 560.103C324.624 560.683 323.416 560.987 322.189 560.986C321.206 560.994 320.235 560.773 319.353 560.34C318.515 559.921 317.765 559.345 317.145 558.642C316.527 557.941 316.038 557.136 315.701 556.264C315.379 555.373 315.234 554.426 315.277 553.479Z" fill="#6934FF"/>
<path d="M336.166 560.918C335.168 560.934 334.18 560.718 333.279 560.29C331.592 559.473 330.284 558.038 329.628 556.282C329.291 555.421 329.118 554.505 329.118 553.581C329.118 552.632 329.302 551.692 329.662 550.813C330.007 549.948 330.508 549.154 331.139 548.469C331.777 547.764 332.544 547.188 333.398 546.771C334.29 546.371 335.257 546.168 336.234 546.176C337.224 546.158 338.202 546.38 339.088 546.822C339.935 547.234 340.691 547.811 341.312 548.52C341.964 549.234 342.477 550.063 342.824 550.966C343.158 551.821 343.331 552.731 343.333 553.649C343.334 554.598 343.149 555.539 342.79 556.417C342.457 557.28 341.961 558.07 341.329 558.744C340.693 559.418 339.932 559.96 339.088 560.341C338.171 560.754 337.171 560.951 336.166 560.918ZM331.971 553.581C331.973 554.198 332.071 554.811 332.26 555.398C332.439 555.958 332.715 556.481 333.075 556.944C333.444 557.387 333.893 557.756 334.4 558.031C334.954 558.303 335.566 558.437 336.183 558.422C336.813 558.434 337.436 558.294 338.001 558.014C338.511 557.738 338.962 557.363 339.325 556.91C339.683 556.438 339.958 555.91 340.141 555.347C340.309 554.796 340.4 554.225 340.412 553.649C340.414 553.03 340.311 552.416 340.107 551.832C339.926 551.27 339.644 550.747 339.274 550.286C338.922 549.831 338.469 549.465 337.95 549.216C337.422 548.955 336.84 548.821 336.251 548.826C335.627 548.814 335.009 548.954 334.451 549.233C333.928 549.491 333.474 549.869 333.126 550.337C332.766 550.801 332.49 551.324 332.311 551.883C332.112 552.428 331.998 553.001 331.971 553.581Z" fill="#6934FF"/>
<path d="M348.208 551.543V560.816H345.406V546.346H347.58L355.12 555.84V546.363H357.94V560.816H355.647L348.208 551.543Z" fill="#6934FF"/>
<path d="M360.946 560.816V546.346H370.677V548.809H363.765V552.545H369.506V554.821H363.765V560.816H360.946Z" fill="#6934FF"/>
<path d="M372.647 560.816V546.346H375.467V560.816H372.647Z" fill="#6934FF"/>
<path d="M378.49 560.816V546.346H384.893C385.533 546.34 386.165 546.48 386.744 546.754C387.291 547.034 387.786 547.407 388.204 547.858C388.604 548.318 388.925 548.84 389.155 549.403C389.376 549.942 389.491 550.519 389.495 551.102C389.511 552.005 389.269 552.894 388.799 553.666C388.364 554.422 387.697 555.017 386.897 555.364L390.191 560.816H386.982L384.026 555.959H381.258V560.816H378.49ZM381.309 553.496H384.842C385.092 553.503 385.34 553.438 385.555 553.309C385.781 553.189 385.977 553.021 386.132 552.817C386.309 552.595 386.441 552.341 386.523 552.07C386.626 551.775 386.678 551.465 386.676 551.152C386.673 550.834 386.616 550.518 386.506 550.218C386.406 549.944 386.257 549.691 386.064 549.471C385.887 549.27 385.674 549.103 385.436 548.979C385.21 548.865 384.959 548.807 384.706 548.809H381.309V553.496Z" fill="#6934FF"/>
<path d="M403.829 560.816V551.237L400.11 558.371H398.581L394.845 551.237V560.816H392.077V546.346H395.1L399.38 554.583L403.693 546.346H406.7V560.816H403.829Z" fill="#6934FF"/>
<path d="M419.709 558.354V560.816H409.655V546.346H419.522V548.809H412.457V552.206H418.554V554.498H412.457V558.269L419.709 558.354Z" fill="#6934FF"/>
<path d="M421.917 560.816V546.346H427.165C428.23 546.319 429.289 546.516 430.273 546.924C431.125 547.267 431.891 547.795 432.515 548.469C433.117 549.132 433.574 549.913 433.856 550.762C434.478 552.642 434.478 554.673 433.856 556.553C433.546 557.404 433.056 558.178 432.42 558.822C431.784 559.467 431.017 559.967 430.171 560.29C429.229 560.654 428.226 560.833 427.216 560.816H421.917ZM431.462 553.564C431.475 552.913 431.377 552.264 431.173 551.645C431.006 551.088 430.723 550.573 430.341 550.134C429.974 549.708 429.515 549.371 428.999 549.148C428.416 548.917 427.793 548.802 427.165 548.809H424.719V558.354H427.165C427.801 558.36 428.432 558.233 429.016 557.98C429.533 557.751 429.991 557.408 430.358 556.978C430.728 556.527 431.005 556.008 431.173 555.449C431.376 554.842 431.474 554.204 431.462 553.564Z" fill="#6934FF"/>
<path d="M459.4 487.107H246.629V307.115L352.998 239.554L459.4 307.115V487.107Z" fill="#6934FF"/>
<path opacity="0.2" d="M459.4 487.107H246.629V307.115L352.998 239.554L459.4 307.115V487.107Z" fill="black"/>
<path d="M447.393 230.994H258.62V473.333H447.393V230.994Z" fill="#EBEBEB"/>
<path d="M341.517 375.983L298.293 332.234L312.814 317.882L338.069 343.443L390.514 261.208L407.736 272.179L341.517 375.983Z" fill="#6934FF"/>
<path d="M459.4 352.257V487.107H246.629V352.257C255.767 357.352 264.751 362.855 273.803 368.154C282.855 373.453 291.823 378.956 300.773 384.458C310.743 390.521 320.712 396.703 330.647 402.919L330.97 402.733C330.868 402.733 330.8 402.902 330.715 402.953C338.143 407.539 345.576 412.153 353.015 416.795C360.42 412.125 367.875 407.42 375.314 402.818C375.229 402.818 375.161 402.665 375.06 402.597C375.16 402.667 375.268 402.724 375.382 402.767C385.312 396.573 395.27 390.414 405.256 384.288C414.212 378.82 423.191 373.396 432.192 368.018C441.33 362.77 450.263 357.352 459.4 352.257Z" fill="#6934FF"/>
<g opacity="0.2">
<path d="M459.4 352.257C450.806 358.287 442.06 364.146 433.398 370.022C424.737 375.899 415.922 381.639 407.125 387.396C397.953 393.409 388.765 399.364 379.56 405.263L378.728 405.841L354.221 421.466L352.998 422.196L351.809 421.466L327.336 405.807L326.469 405.263C317.242 399.353 308.042 393.386 298.871 387.362C290.107 381.639 281.361 375.831 272.631 370.022C263.902 364.214 255.223 358.202 246.629 352.257C255.767 357.352 264.751 362.855 273.803 368.154C282.855 373.453 291.823 378.956 300.773 384.458C310.743 390.521 320.712 396.703 330.647 402.919C338.12 407.528 345.576 412.153 353.015 416.795C360.42 412.125 367.875 407.42 375.314 402.818C385.244 396.624 395.202 390.465 405.188 384.339C414.144 378.871 423.123 373.447 432.124 368.069C441.33 362.77 450.263 357.352 459.4 352.257Z" fill="black"/>
<path d="M330.936 402.648C330.834 402.648 330.766 402.817 330.681 402.868L327.285 405.722C321.952 410.222 316.483 414.536 310.929 418.731C304.136 423.826 297.224 428.921 290.26 433.779C283.297 438.636 276.232 443.391 269.031 447.994C261.83 452.597 254.595 457.097 247.088 461.224C253.542 455.569 260.25 450.287 267.027 445.158C273.803 440.029 280.766 434.967 287.696 430.093C294.625 425.219 301.758 420.447 308.942 415.844C314.666 412.175 320.491 408.558 326.418 405.178C327.794 404.38 329.17 403.616 330.579 402.835L330.936 402.648Z" fill="black"/>
<path d="M458.89 461.224C451.384 457.097 444.098 452.597 436.948 447.994C429.797 443.391 422.647 438.602 415.684 433.779C408.721 428.955 401.791 423.894 395.015 418.731C389.495 414.536 384.027 410.239 378.728 405.756L375.331 402.868C375.246 402.868 375.178 402.716 375.076 402.648C375.176 402.717 375.285 402.774 375.399 402.817C376.809 403.616 378.184 404.38 379.56 405.178C385.487 408.575 391.279 412.175 397.036 415.844C404.22 420.447 411.251 425.236 418.249 430.093C425.246 434.951 432.141 439.978 438.918 445.158C445.694 450.338 452.437 455.569 458.89 461.224Z" fill="black"/>
</g>
<path d="M261.982 219.445C260.85 210.11 260.85 200.672 261.982 191.337C263.115 200.672 263.115 210.11 261.982 219.445Z" fill="#263238"/>
<path d="M250.026 223.912C246.304 221.04 242.78 217.919 239.479 214.571C236.127 211.28 233.006 207.762 230.138 204.041C237.541 209.843 244.218 216.514 250.026 223.912Z" fill="#263238"/>
<path d="M244.744 235.512C240.082 236.116 235.383 236.4 230.682 236.361C225.986 236.413 221.293 236.135 216.636 235.529C221.292 234.916 225.986 234.632 230.682 234.68C235.383 234.635 240.081 234.913 244.744 235.512Z" fill="#263238"/>
<path d="M249.211 247.451C243.403 254.848 236.732 261.525 229.34 267.339C235.134 259.925 241.807 253.242 249.211 247.434V247.451Z" fill="#263238"/>
<path d="M442.773 219.445C442.183 214.782 441.905 210.084 441.941 205.383C441.907 200.687 442.197 195.994 442.807 191.337C443.939 200.672 443.939 210.11 442.807 219.445H442.773Z" fill="#263238"/>
<path d="M454.729 223.912C460.537 216.514 467.215 209.843 474.617 204.041C471.749 207.762 468.628 211.28 465.276 214.571C461.976 217.919 458.452 221.04 454.729 223.912Z" fill="#263238"/>
<path d="M460.011 235.512C464.674 234.913 469.373 234.635 474.074 234.68C478.77 234.632 483.463 234.916 488.119 235.529C483.463 236.136 478.769 236.414 474.074 236.361C469.372 236.4 464.674 236.116 460.011 235.512Z" fill="#263238"/>
<path d="M455.544 247.451C462.947 253.253 469.62 259.931 475.415 267.339C471.699 264.46 468.181 261.334 464.885 257.981C461.534 254.69 458.413 251.171 455.544 247.451Z" fill="#263238"/>
<path d="M215.94 710.815C212.271 712.004 107.771 710.646 103.848 708.064C102.336 707.113 101.64 691.879 101.334 673.435V672.857C101.334 669.07 101.215 665.147 101.198 661.189C101.198 660.646 101.198 660.102 101.198 659.491L106.293 605.279L176.198 605.976L169.286 659.678V661.801L168.861 672.908V674.063C168.861 674.063 208.637 692.473 212.679 695.768C216.721 699.063 219.591 709.661 215.94 710.815Z" fill="#F7A9A0"/>
<path d="M215.94 710.816C212.271 712.005 107.771 710.646 103.848 708.064C102.336 707.113 101.64 691.879 101.334 673.435V672.857C101.334 669.07 101.215 665.147 101.198 661.19C101.198 660.646 101.198 660.103 101.198 659.491L169.269 659.678V661.801L168.844 672.908V674.063C168.844 674.063 208.62 692.473 212.662 695.768C216.704 699.063 219.591 709.661 215.94 710.816Z" fill="#EBEBEB"/>
<path d="M216.245 711.07C212.543 712.259 107.092 711.257 103.101 708.676C101.572 707.707 100.825 692.337 100.451 673.74L168.386 674.199C168.386 674.199 208.586 692.643 212.679 695.938C216.772 699.233 219.931 709.864 216.245 711.07Z" fill="#6934FF"/>
<path d="M214.768 706.841C197.105 706.23 125.757 705.465 108.247 706.213C108.111 706.213 108.111 706.315 108.247 706.332C125.757 707.3 197.088 707.487 214.768 707.13C215.142 707.113 215.142 706.841 214.768 706.841Z" fill="#263238"/>
<path d="M205.97 692.083C204.006 692.017 202.05 692.357 200.224 693.082C198.397 693.806 196.74 694.9 195.356 696.295C192.855 698.799 191.408 702.166 191.313 705.704C191.313 705.805 191.517 705.805 191.534 705.704C192.166 702.208 193.914 699.012 196.518 696.596C199.121 694.18 202.438 692.673 205.97 692.303C205.988 692.311 206.008 692.313 206.027 692.311C206.047 692.309 206.065 692.302 206.081 692.292C206.097 692.281 206.11 692.266 206.119 692.249C206.129 692.232 206.133 692.213 206.133 692.193C206.133 692.174 206.129 692.155 206.119 692.137C206.11 692.12 206.097 692.106 206.081 692.095C206.065 692.084 206.047 692.077 206.027 692.075C206.008 692.073 205.988 692.075 205.97 692.083Z" fill="#263238"/>
<path d="M175.281 676.033C168.199 675.863 159.996 678.275 155.529 684.015C155.359 684.253 155.682 684.491 155.886 684.372C162.106 681.194 168.648 678.689 175.4 676.899C175.502 676.87 175.59 676.805 175.649 676.716C175.707 676.627 175.731 676.52 175.716 676.414C175.702 676.309 175.65 676.212 175.57 676.142C175.49 676.072 175.387 676.033 175.281 676.033Z" fill="#263238"/>
<path d="M180.716 678.207C173.65 678.037 165.43 680.466 160.964 686.206C160.794 686.427 161.117 686.665 161.32 686.563C167.539 683.376 174.081 680.865 180.835 679.073C180.937 679.044 181.025 678.979 181.083 678.89C181.141 678.801 181.165 678.694 181.151 678.589C181.136 678.483 181.084 678.387 181.004 678.317C180.924 678.246 180.822 678.208 180.716 678.207Z" fill="#263238"/>
<path d="M186.167 680.381C179.085 680.228 170.882 682.64 166.416 688.38C166.246 688.601 166.551 688.856 166.772 688.737C172.988 685.562 179.524 683.057 186.269 681.264C186.365 681.228 186.445 681.161 186.498 681.074C186.551 680.986 186.574 680.884 186.562 680.783C186.55 680.681 186.505 680.587 186.434 680.514C186.362 680.441 186.269 680.394 186.167 680.381Z" fill="#263238"/>
<path d="M191.67 682.572C184.605 682.402 176.385 684.831 171.918 690.571C171.748 690.792 172.071 691.03 172.275 690.928C178.455 687.748 184.957 685.238 191.67 683.438C191.77 683.418 191.861 683.364 191.925 683.285C191.99 683.206 192.026 683.107 192.026 683.005C192.026 682.903 191.99 682.804 191.925 682.725C191.861 682.646 191.77 682.592 191.67 682.572Z" fill="#263238"/>
<path d="M112.917 689.467C104.969 689.467 104.884 701.746 112.917 701.797C120.95 701.848 120.865 689.518 112.917 689.467Z" fill="white"/>
<path d="M183.178 657.215C179.629 654.209 175.077 657.08 172.852 660.137C169.087 665.459 166.79 671.68 166.195 678.173C166.195 678.309 166.297 678.377 166.416 678.377C166.441 678.51 166.498 678.635 166.581 678.741C166.665 678.848 166.772 678.933 166.895 678.99C167.018 679.046 167.153 679.072 167.288 679.066C167.423 679.06 167.555 679.022 167.672 678.954C172.767 675.558 178.593 672.467 182.465 667.592C184.707 664.756 186.473 660.069 183.178 657.215ZM174.347 672.178C171.901 673.876 169.371 675.575 166.993 677.392C168.173 673.843 169.534 670.357 171.069 666.947C171.842 665.306 172.722 663.718 173.702 662.192C175.264 659.865 182.193 654.022 182.89 661.733C183.178 665.979 177.2 670.089 174.279 672.178H174.347Z" fill="#263238"/>
<path d="M148.566 680.619C154.731 681.621 161.1 679.939 167.163 679.056C167.294 679.022 167.415 678.958 167.517 678.869C167.62 678.78 167.7 678.669 167.753 678.545C167.805 678.42 167.828 678.285 167.82 678.15C167.812 678.014 167.773 677.883 167.706 677.765C167.728 677.748 167.745 677.726 167.757 677.701C167.769 677.676 167.775 677.649 167.775 677.621C167.775 677.593 167.769 677.566 167.757 677.541C167.745 677.516 167.728 677.494 167.706 677.477C162.922 673.081 157.064 670.023 150.723 668.611C147.003 667.847 141.721 668.798 141.127 673.418C140.533 677.782 144.982 680.041 148.566 680.619ZM144.337 676.644C139.616 670.53 148.719 670.123 151.436 670.785C153.171 671.234 154.874 671.801 156.531 672.483C160.03 673.876 163.325 675.727 166.602 677.443C163.596 677.697 160.641 678.207 157.635 678.564C154.12 678.937 146.952 679.922 144.337 676.644Z" fill="#263238"/>
<path opacity="0.1" d="M156.514 711.24C130.308 710.781 105.02 709.915 103.101 708.676C101.572 707.707 100.825 692.337 100.451 673.74H110.132C120.832 682.504 143.471 700.727 156.514 711.24Z" fill="black"/>
<path d="M173.328 673.248H98.0735C98.0735 673.248 113.223 497.484 112.628 494.41C111.881 490.47 107.432 472.688 101.521 449.438C99.67 442.169 97.6659 434.373 95.5939 426.289C89.9723 404.414 83.7054 380.518 78.4065 359.713C70.3223 328.565 64.0044 304.364 64.0044 304.364H127.778C127.778 304.364 135.217 327.92 144.592 358.592C159.877 408.405 180.257 476.985 182.261 493.663C185.522 520.548 173.328 673.248 173.328 673.248Z" fill="#37474F"/>
<path d="M169.999 660.374C158.501 660.137 161.796 660.052 150.298 659.933C144.677 659.933 107.72 659.559 102.455 660.425C102.424 660.425 102.394 660.438 102.371 660.46C102.349 660.482 102.336 660.513 102.336 660.544C102.336 660.576 102.349 660.606 102.371 660.628C102.394 660.65 102.424 660.663 102.455 660.663C107.72 661.529 144.677 661.206 150.298 661.156C161.796 661.054 158.501 660.952 169.999 660.714C170.044 660.714 170.087 660.696 170.119 660.664C170.151 660.632 170.169 660.589 170.169 660.544C170.169 660.499 170.151 660.456 170.119 660.424C170.087 660.392 170.044 660.374 169.999 660.374Z" fill="#263238"/>
<path d="M126.793 483.625C124.33 472.756 120.628 462.09 117.418 451.357C110.896 429.674 104.335 407.992 97.7336 386.309C94.4388 375.474 91.1327 364.638 87.8152 353.803C86.1395 348.334 84.4411 342.871 82.7201 337.413C81.0218 332.064 79.1366 326.782 77.625 321.381C77.0136 319.19 76.674 320.396 77.4722 323.181C79.0517 328.786 80.6142 334.407 82.2616 340.012C85.4885 351.108 88.7493 362.193 92.0441 373.266C98.5658 395.311 105.144 417.338 111.779 439.349C115.097 450.4 118.42 461.439 121.748 472.467C123.432 477.722 124.787 483.077 125.808 488.5C126.704 494.166 126.932 499.917 126.487 505.636C125.757 517.151 124.415 528.649 123.362 540.13C122.309 551.611 121.222 563.16 120.169 574.658C118.052 597.574 115.946 620.485 113.851 643.39C113.596 646.295 113.342 649.199 113.121 652.12C113.121 653.088 114.513 653.003 114.615 652.12C117.095 629.481 118.997 606.74 121.12 584.067C123.243 561.393 125.366 538.907 127.472 516.336C127.998 510.663 128.61 504.991 128.61 499.352C128.596 494.058 127.986 488.783 126.793 483.625Z" fill="#263238"/>
<path d="M120.543 304.33C116.11 338.586 107.669 402.835 101.521 449.404C87.1361 393.018 64.0044 304.33 64.0044 304.33H120.543Z" fill="#263238"/>
<path d="M136.202 711.834C132.55 713.023 28.0498 712.055 24.1096 709.491C22.5981 708.539 21.8508 693.305 21.4772 674.861V674.283C21.3923 670.496 21.3243 666.573 21.3073 662.616C21.3073 662.072 21.3073 661.529 21.3073 660.917C21.0696 634.321 23.0057 606.723 23.0057 606.723L91.3138 607.164L89.3947 660.866V662.989L89.021 674.114V675.252C89.021 675.252 128.678 693.628 132.72 696.855C136.762 700.082 139.87 710.611 136.202 711.834Z" fill="#F7A9A0"/>
<path d="M136.202 711.834C132.55 713.023 28.0501 712.055 24.1099 709.491C22.5984 708.54 21.8511 693.305 21.4775 674.861V674.284C21.3925 670.496 21.3246 666.573 21.3076 662.616C21.3076 662.072 21.3076 661.529 21.3076 660.917H89.378V663.04L89.0043 674.165V675.303C89.0043 675.303 128.678 693.628 132.72 696.855C136.762 700.082 139.87 710.612 136.202 711.834Z" fill="#EBEBEB"/>
<path d="M136.626 711.614C132.924 712.803 27.4726 711.801 23.4815 709.219C21.953 708.251 21.2057 692.881 20.832 674.284L88.7665 674.742C88.7665 674.742 128.967 693.186 133.043 696.481C137.119 699.776 140.312 710.408 136.626 711.614Z" fill="#6934FF"/>
<path d="M135.149 707.385C117.469 706.773 46.1374 706.009 28.6273 706.756C28.4914 706.756 28.4914 706.858 28.6273 706.858C46.1204 707.843 117.469 708.03 135.149 707.673C135.522 707.656 135.522 707.385 135.149 707.385Z" fill="#263238"/>
<path d="M126.351 692.626C124.387 692.559 122.431 692.899 120.604 693.623C118.777 694.348 117.12 695.443 115.736 696.838C113.23 699.338 111.782 702.708 111.694 706.247C111.694 706.349 111.898 706.349 111.915 706.247C112.547 702.752 114.295 699.556 116.898 697.139C119.502 694.723 122.819 693.217 126.351 692.847C126.373 692.838 126.392 692.823 126.405 692.803C126.419 692.783 126.426 692.76 126.426 692.736C126.426 692.713 126.419 692.689 126.405 692.67C126.392 692.65 126.373 692.635 126.351 692.626Z" fill="#263238"/>
<path d="M95.6621 676.645C88.58 676.492 80.3769 678.903 75.9102 684.644C75.7403 684.865 76.046 685.119 76.2668 685C82.4875 681.823 89.0292 679.318 95.781 677.528C95.8767 677.49 95.9571 677.422 96.0092 677.333C96.0614 677.245 96.0823 677.141 96.0686 677.039C96.0549 676.938 96.0074 676.843 95.9336 676.772C95.8599 676.7 95.7643 676.655 95.6621 676.645Z" fill="#263238"/>
<path d="M101.097 678.751C94.0313 678.581 85.8113 680.992 81.3446 686.75C81.1747 686.971 81.4974 687.208 81.7012 687.107C87.9194 683.919 94.4616 681.408 101.215 679.617C101.318 679.588 101.406 679.522 101.464 679.433C101.522 679.344 101.546 679.237 101.532 679.132C101.517 679.027 101.465 678.93 101.385 678.86C101.305 678.79 101.203 678.751 101.097 678.751Z" fill="#263238"/>
<path d="M106.548 680.924C99.466 680.754 91.2629 683.183 86.7962 688.924C86.6094 689.144 86.9321 689.382 87.1528 689.28C93.3644 686.096 99.9013 683.59 106.65 681.807C106.745 681.771 106.826 681.704 106.879 681.617C106.932 681.53 106.954 681.428 106.943 681.326C106.931 681.225 106.886 681.13 106.814 681.058C106.743 680.985 106.649 680.938 106.548 680.924Z" fill="#263238"/>
<path d="M111.983 683.115C104.901 682.945 96.698 685.357 92.2313 691.115C92.0615 691.335 92.3842 691.573 92.588 691.471C98.8049 688.281 105.347 685.77 112.102 683.981C112.204 683.952 112.293 683.887 112.351 683.798C112.409 683.709 112.433 683.602 112.418 683.497C112.404 683.391 112.352 683.295 112.272 683.225C112.192 683.155 112.09 683.116 111.983 683.115Z" fill="#263238"/>
<path d="M33.2978 690.011C25.3495 690.011 25.2646 702.29 33.2978 702.341C41.3311 702.392 41.2462 690.062 33.2978 690.011Z" fill="white"/>
<path d="M103.491 657.759C99.9248 654.753 95.3902 657.623 93.1484 660.68C89.4087 666.004 87.1361 672.219 86.5587 678.7C86.5555 678.729 86.5592 678.758 86.5695 678.785C86.5797 678.813 86.5962 678.837 86.6177 678.857C86.6392 678.877 86.665 678.892 86.6931 678.9C86.7212 678.908 86.7508 678.909 86.7795 678.903C86.8026 679.038 86.8577 679.165 86.9402 679.273C87.0227 679.382 87.1301 679.469 87.2534 679.527C87.3766 679.586 87.5122 679.613 87.6484 679.608C87.7847 679.603 87.9178 679.565 88.0363 679.498C93.1314 676.101 98.9568 673.01 102.829 668.119C105.054 665.266 106.854 660.595 103.491 657.759ZM94.6599 672.721C92.2143 674.42 89.6837 676.118 87.306 677.918C88.5138 674.368 89.9026 670.882 91.467 667.473C92.2404 665.838 93.1198 664.256 94.0995 662.735C95.6619 660.408 102.591 654.566 103.288 662.259C103.559 666.454 97.5811 670.632 94.6599 672.721Z" fill="#263238"/>
<path d="M68.9465 681.162C75.0945 682.164 81.4804 680.465 87.5265 679.599C87.6545 679.566 87.7733 679.505 87.8738 679.419C87.9743 679.333 88.0538 679.225 88.1063 679.104C88.1587 678.983 88.1827 678.851 88.1765 678.719C88.1702 678.587 88.1338 678.458 88.07 678.342C88.0945 678.325 88.1146 678.302 88.1284 678.276C88.1422 678.249 88.1494 678.22 88.1494 678.19C88.1494 678.16 88.1422 678.13 88.1284 678.103C88.1146 678.077 88.0945 678.054 88.07 678.037C83.2787 673.651 77.4238 670.595 71.0864 669.171C67.367 668.424 62.0851 669.375 61.4906 673.995C60.8962 678.342 65.3629 680.567 68.9465 681.162ZM64.7175 677.086C59.9961 670.971 69.0993 670.581 71.8167 671.243C73.552 671.692 75.2544 672.259 76.9118 672.942C80.345 674.423 83.7008 676.078 86.9661 677.901C83.96 678.156 81.0048 678.648 78.0157 679.022C74.4831 679.48 67.333 680.465 64.7175 677.086Z" fill="#263238"/>
<path d="M125.723 304.33C125.723 304.33 124.245 334.9 117.231 359.017C116.671 361.021 116.059 362.974 115.414 364.859C109.02 367.456 102.875 370.628 97.0545 374.336C97.0545 374.336 96.3242 398.877 95.5939 426.272C94.7787 456.842 93.8956 491.014 94.0994 498.266C94.7448 525.439 90.7027 674.335 90.7027 674.335L15.4482 674.64C15.4482 674.64 29.0351 508.201 29.0351 498.333C28.8823 482.386 32.6696 411.87 35.6078 360.46C37.3062 328.769 38.8686 304.415 38.8686 304.415L125.723 304.33Z" fill="#37474F"/>
<path d="M88.0706 660.935C76.5727 660.748 79.8675 660.646 68.3866 660.578C62.748 660.578 25.7916 660.374 20.5437 661.274C20.5122 661.274 20.4819 661.287 20.4596 661.309C20.4373 661.331 20.4248 661.362 20.4248 661.393C20.4248 661.425 20.4373 661.455 20.4596 661.477C20.4819 661.499 20.5122 661.512 20.5437 661.512C25.7916 662.361 62.765 661.869 68.3866 661.801C79.8845 661.631 76.5727 661.563 88.0706 661.274C88.1156 661.274 88.1588 661.256 88.1907 661.224C88.2225 661.193 88.2404 661.149 88.2404 661.104C88.2404 661.059 88.2225 661.016 88.1907 660.984C88.1588 660.952 88.1156 660.935 88.0706 660.935Z" fill="#263238"/>
<path d="M45.1353 315.233C43.7427 357.216 42.2821 399.2 40.3969 441.149C38.5117 483.099 35.9811 525.354 32.4655 567.338C30.4954 590.809 28.6272 623.825 26.0967 647.161C26.0967 647.314 26.3175 647.382 26.3514 647.161C31.8202 605.517 34.8432 554.04 37.5776 512.124C40.312 470.208 42.0952 428.259 43.5219 386.309C44.3371 362.532 44.9485 338.755 45.6618 315.08C45.6109 314.893 45.1523 314.893 45.1353 315.233Z" fill="#263238"/>
<path d="M118.64 363.042C111.133 366.176 103.91 369.955 97.0543 374.336C97.0075 374.373 96.9753 374.425 96.9632 374.484C96.9512 374.543 96.9601 374.603 96.9885 374.656C97.0168 374.709 97.0627 374.75 97.1183 374.772C97.1738 374.794 97.2353 374.796 97.2921 374.777C104.544 371.245 111.949 367.848 119.014 363.925C119.104 363.859 119.169 363.765 119.198 363.658C119.228 363.551 119.22 363.438 119.177 363.335C119.134 363.233 119.057 363.148 118.96 363.095C118.863 363.042 118.75 363.023 118.64 363.042Z" fill="#263238"/>
<path d="M118.997 337.159C118.488 339.825 117.842 342.475 117.299 345.141C116.755 347.808 116.365 350.236 115.702 352.648C115.154 355.031 113.941 357.21 112.204 358.932C111.236 359.832 110.149 360.63 109.113 361.479L107.414 362.821C107.414 362.464 107.567 362.108 107.618 361.734C107.805 360.715 107.975 359.713 108.145 358.694C108.518 356.435 108.875 354.176 109.232 351.901C109.911 347.451 110.522 342.967 111.456 338.585C111.456 338.399 111.219 338.331 111.185 338.585C110.081 342.933 108.858 347.23 107.89 351.629C107.414 353.786 105.733 364.418 105.665 365.216C105.597 366.014 105.512 366.778 105.495 367.559C105.384 368.348 105.384 369.149 105.495 369.937C105.495 370.141 105.767 370.107 105.852 369.937C106.183 369.202 106.411 368.425 106.531 367.627C106.735 366.88 106.905 366.099 107.041 365.335C107.041 365.063 107.041 364.774 107.16 364.485C108.213 363.857 109.181 363.008 110.166 362.295C111.151 361.581 112.306 360.783 113.291 359.951C115.08 358.362 116.351 356.274 116.942 353.956C117.589 351.451 118.01 348.893 118.199 346.313C118.539 343.29 118.776 340.25 119.201 337.244C119.303 336.972 119.031 336.972 118.997 337.159Z" fill="#263238"/>
<path d="M91.4668 235.189C97.2922 252.733 123.379 308.508 134.333 312.414C145.746 316.456 189.819 321.5 199.602 313.806C204.391 310.019 206.055 269.649 199.602 270.668C193.148 271.687 154.289 273.097 149.67 271.449C145.05 269.802 114.191 224.88 101.657 213.943C80.0369 195.176 88.3588 225.729 91.4668 235.189Z" fill="#F7A9A0"/>
<path d="M189.853 269.989L189.224 320.243C189.224 320.243 144.031 320.362 131.989 314.027C119.948 307.692 94.4727 249.625 88.1038 227.411C81.7349 205.196 91.9251 201.765 108.111 218.07C124.296 234.374 148.633 268.545 151.521 269.241C154.408 269.938 189.853 269.989 189.853 269.989Z" fill="#6934FF"/>
<path d="M129.544 242.9C120.245 244.459 111.241 247.438 102.846 251.731L101.317 252.529C100.927 252.716 100.553 252.92 100.179 253.141C99.4322 253.531 98.7019 253.939 97.9716 254.381L97.6489 253.565L99.1944 252.665L100.315 252.071C101.012 251.68 101.725 251.289 102.438 250.933C106.749 248.696 111.244 246.833 115.872 245.362C120.156 243.975 124.539 242.913 128.984 242.186L129.544 242.9ZM139.632 255.586C138.831 256.007 138.009 256.387 137.17 256.724C135 257.638 132.714 258.244 130.376 258.525C129.187 258.66 127.999 258.864 126.81 258.932L123.226 259.034C118.432 258.904 113.701 257.903 109.266 256.079C106.599 255.043 104.001 253.786 101.402 252.529C101.063 252.393 100.74 252.224 100.4 252.071C99.585 251.697 98.7019 251.306 97.9376 250.95L97.1394 250.61L96.3921 250.287L96.6808 251.001C96.6808 251.205 96.8506 251.408 96.9186 251.612H97.0714L99.2623 252.597L100.247 253.073C103.067 254.414 105.903 255.841 108.858 256.996C113.412 258.869 118.269 259.9 123.192 260.036L126.861 259.951C128.084 259.951 129.306 259.662 130.512 259.527C132.964 259.243 135.365 258.62 137.645 257.675C138.591 257.303 139.515 256.878 140.414 256.402L139.632 255.586ZM122.241 233.949C119.063 235.423 115.973 237.079 112.985 238.908C107.364 242.367 102.036 246.281 97.0544 250.61L96.5959 251.001C96.5959 251.205 96.7657 251.408 96.8337 251.612V251.748C96.8337 251.748 96.8337 251.748 96.9356 251.748C97.2243 251.493 97.496 251.239 97.7847 251.018C102.678 246.849 107.898 243.078 113.393 239.741C116.437 237.919 119.572 236.253 122.785 234.747L122.241 233.949Z" fill="white"/>
<path d="M176.691 294.802C176.691 290.811 176.979 274.897 177.336 271.025H177.455C177.846 274.863 178.049 290.573 178.032 294.564C178.163 302.5 177.863 310.438 177.132 318.341C177.123 318.367 177.105 318.389 177.082 318.405C177.06 318.421 177.033 318.43 177.005 318.43C176.977 318.43 176.95 318.421 176.927 318.405C176.904 318.389 176.887 318.367 176.877 318.341C176.283 310.512 176.606 302.648 176.691 294.802Z" fill="#263238"/>
<path opacity="0.1" d="M88.0703 227.394C94.4392 249.625 119.915 307.675 131.956 314.01C137.73 317.05 151.114 318.613 163.495 319.394L92.571 207.897C86.5078 207.251 84.215 213.824 88.0703 227.394Z" fill="black"/>
<path d="M30.9714 349.659C31.2432 349.931 141.501 342.39 142.418 341.167C143.709 339.469 108.807 227.377 100.061 210.988C96.3414 203.973 78.5086 202.954 71.4604 209.595C53.8144 226.188 41.5353 279.839 38.9537 295.923C34.6739 322.451 29.9864 348.691 30.9714 349.659Z" fill="#6934FF"/>
<path d="M136.524 318.867L133.433 317.05C129.267 314.623 124.976 312.418 120.577 310.444L118.165 309.391L116.993 308.915C113.745 307.573 110.415 306.439 107.024 305.518C102.389 304.225 97.6395 303.383 92.8424 303.005C83.216 302.588 73.5834 303.676 64.293 306.232L62.5946 306.707C62.17 306.809 61.7624 306.928 61.3548 307.064C54.8815 309.043 48.5912 311.577 42.5539 314.639C40.8556 315.437 39.1572 316.337 37.5947 317.169L37.0852 317.441L35.217 318.443L35.3699 317.577L37.289 316.592C39.1912 315.556 41.1103 314.554 43.0465 313.62C44.6429 312.804 46.2734 312.04 47.9038 311.31C52.0049 309.429 56.2127 307.79 60.5056 306.401L61.7454 306.045C62.5097 305.79 63.274 305.569 64.0552 305.365C68.7339 304.05 73.519 303.146 78.3554 302.665C83.1829 302.141 88.0454 302.016 92.8934 302.291C101.42 303.02 109.775 305.113 117.639 308.49L118.793 309L120.814 309.9C125.22 311.93 129.512 314.198 133.671 316.694L136.321 318.256L136.524 318.867ZM130.818 300.185C127.999 301.884 125.247 303.582 122.513 305.382C120.814 306.435 119.269 307.505 117.639 308.541L116.993 308.966C114.768 310.393 112.509 311.768 110.2 313.059C106.065 315.476 101.561 317.197 96.8676 318.154C94.5237 318.604 92.1285 318.724 89.7514 318.511C88.5626 318.392 87.3567 318.358 86.1849 318.188L82.6523 317.56C77.9876 316.443 73.5631 314.492 69.5919 311.802C67.1972 310.24 64.9214 308.406 62.6116 306.707L61.7285 306.045C61.0151 305.501 60.2848 304.958 59.5545 304.448L58.8582 303.939L57.8392 303.243C53.7936 300.362 48.9943 298.727 44.0315 298.538C42.0735 298.575 40.139 298.972 38.325 299.71L38.1722 300.627C40.0252 299.855 42.0074 299.44 44.0145 299.404C48.7969 299.634 53.4076 301.257 57.2788 304.075L57.8732 304.482L58.5695 304.975C59.2149 305.433 59.8603 305.909 60.4887 306.401L61.3718 307.064C63.8684 308.966 66.348 310.936 69.0144 312.668C73.081 315.432 77.6156 317.435 82.3975 318.579L86.032 319.241C87.2379 319.411 88.4607 319.462 89.6835 319.581C92.1453 319.793 94.6246 319.673 97.0544 319.224C101.844 318.234 106.435 316.454 110.641 313.959C113.172 312.533 115.634 310.987 118.063 309.391L118.692 309L122.971 306.198C125.621 304.499 128.304 302.801 131.022 301.103L130.818 300.185ZM128.95 294.173C126 293.22 123.001 292.426 119.965 291.796C115.187 290.829 110.318 290.385 105.444 290.471C100.569 290.563 95.7108 291.074 90.9233 291.999C86.1389 292.902 81.4317 294.174 76.8439 295.804C70.6393 298.033 64.6293 300.771 58.8752 303.99C58.5355 304.16 58.2129 304.346 57.8902 304.533C55.4785 305.875 53.1178 307.268 50.774 308.711C48.1755 310.308 45.594 311.955 43.0465 313.62C41.0594 314.893 39.0893 316.201 37.1192 317.492L35.217 318.732C35.217 319.003 35.1321 319.258 35.0981 319.513C37.6117 317.916 40.0913 316.286 42.5879 314.69C44.2863 313.552 46.1205 312.414 47.9038 311.293C48.9738 310.613 50.0437 309.951 51.1307 309.306C53.5763 307.828 56.0729 306.384 58.5865 305.009L59.5715 304.482C65.209 301.396 71.0876 298.772 77.1496 296.636C86.2484 293.395 95.7916 291.574 105.444 291.235C110.269 291.124 115.092 291.534 119.829 292.458C122.993 293.095 126.117 293.912 129.187 294.904C129.102 294.615 129.018 294.36 128.95 294.122V294.173Z" fill="white"/>
<path d="M56.651 222.333C27.3882 254.602 -5.61097 309.136 8.50242 320.838C21.41 331.469 68.4886 321.347 98.091 309.781C103.73 307.574 80.8696 257.744 75.1291 260.699C69.085 263.916 62.8455 266.752 56.4472 269.191C54.7488 269.632 63.7162 258.763 73.6346 232.642C83.6549 205.961 73.3798 203.872 56.651 222.333Z" fill="#F7A9A0"/>
<path d="M147.054 256.928C147.054 262.72 132.805 261.582 132.805 261.582C134.882 262.934 136.42 264.971 137.153 267.339C138.223 271.602 132.058 275.169 132.058 275.169C133.909 277.026 135.167 279.39 135.675 281.962C136.287 286.14 130.58 290.641 130.58 290.641C131.335 293.309 131.106 296.16 129.935 298.674C126.538 305.281 115.125 305.467 108.077 306.894C100.179 308.72 92.4434 311.185 84.9453 314.265L71.834 262.21C71.834 262.21 102.404 244.055 110.896 244.462C118.063 244.955 147.02 248.063 147.054 256.928Z" fill="#F7A9A0"/>
<path d="M132.686 261.412C125.112 259.204 117.027 258.83 109.232 258.542C109.062 258.542 109.045 258.796 109.232 258.813C117.01 259 124.908 261.276 132.635 261.786C132.685 261.792 132.735 261.779 132.775 261.749C132.815 261.719 132.841 261.674 132.848 261.624C132.854 261.575 132.841 261.525 132.811 261.485C132.781 261.445 132.736 261.419 132.686 261.412Z" fill="#263238"/>
<path d="M131.803 274.642C130.035 274.309 128.23 274.212 126.436 274.353C124.534 274.353 122.632 274.438 120.73 274.523C116.914 274.693 113.11 274.965 109.317 275.338C109.147 275.338 109.13 275.61 109.317 275.61C113.121 275.44 116.926 275.321 120.713 275.304H126.419C128.215 275.452 130.021 275.395 131.803 275.135C131.85 275.113 131.89 275.078 131.918 275.034C131.945 274.991 131.96 274.94 131.96 274.888C131.96 274.837 131.945 274.786 131.918 274.742C131.89 274.699 131.85 274.664 131.803 274.642Z" fill="#263238"/>
<path d="M130.308 290.794C128.707 290.513 127.069 290.513 125.468 290.794L120.339 291.116C116.942 291.303 113.392 291.507 109.911 291.575C109.875 291.575 109.84 291.589 109.815 291.615C109.789 291.64 109.775 291.675 109.775 291.711C109.775 291.747 109.789 291.781 109.815 291.807C109.84 291.832 109.875 291.847 109.911 291.847C113.443 291.847 116.976 291.847 120.509 291.694L125.706 291.541C127.289 291.637 128.877 291.447 130.393 290.98C130.418 290.969 130.437 290.949 130.447 290.923C130.456 290.898 130.455 290.869 130.444 290.845C130.433 290.82 130.412 290.8 130.387 290.791C130.361 290.781 130.333 290.782 130.308 290.794Z" fill="#263238"/>
<path d="M70.3562 261.786L81.6333 317.831C81.6333 317.831 11.5419 336.123 4.2729 318.392C-2.99609 300.661 38.2401 234.816 62.0172 216.032C85.7943 197.248 76.8609 226.833 76.1306 229.211C72.9207 239.724 57.9751 267.135 57.9751 267.135L70.3562 261.786Z" fill="#6934FF"/>
<path d="M81.633 317.764C81.633 317.764 11.5416 336.055 4.27262 318.324C0.36639 308.779 10.4886 285.325 24.3642 262.754L24.585 262.397L24.8738 261.938C24.9587 261.786 25.0606 261.633 25.1625 261.48C30.1736 253.403 35.5927 245.586 41.3988 238.059L41.9932 237.295C47.8416 229.463 54.5464 222.308 61.983 215.964C85.76 197.18 76.8266 226.765 76.0963 229.143C75.8756 229.89 75.5868 230.723 75.2472 231.623C75.1113 231.962 74.9754 232.336 74.8226 232.71C72.8695 237.703 69.7275 244.428 66.5516 250.61L66.1779 251.358C66.1779 251.358 66.1779 251.527 66.059 251.595L65.8552 251.986C61.8301 259.917 58.1786 266.643 57.9578 267.051L70.3559 261.786L81.633 317.764Z" fill="#6934FF"/>
<path d="M66.5519 250.61L66.1782 251.358C66.1782 251.358 66.1782 251.527 66.0594 251.595L65.2102 252.139L58.2978 256.639C54.241 259.311 50.0017 261.695 45.6111 263.773C43.3884 264.797 41.0586 265.572 38.6648 266.082C36.2414 266.647 33.7129 266.571 31.3279 265.862C30.7334 265.692 30.122 265.556 29.6295 265.369L27.9311 264.639C26.8023 264.157 25.7122 263.589 24.6703 262.94L24.4155 262.788L24.6363 262.431L24.925 261.972C25.0015 262.045 25.0872 262.108 25.1798 262.159L25.4176 262.295C26.333 262.898 27.299 263.421 28.3048 263.857L30.0031 264.571L31.7015 265.063C33.961 265.752 36.361 265.84 38.6648 265.318C41.003 264.832 43.2811 264.092 45.4582 263.11C49.819 261.081 54.0352 258.754 58.0771 256.147L63.5967 252.614L65.0403 251.68L66.5519 250.61ZM64.8535 251.646C56.1409 253.769 47.5982 256.47 38.9026 258.593C34.3509 259.73 29.7314 260.732 25.0949 261.48C24.993 261.633 24.8911 261.785 24.8061 261.938L24.5174 262.397L25.2987 262.261C29.9352 261.48 34.5378 260.444 39.0894 259.289C47.2585 257.234 55.2748 254.686 63.4099 252.58L65.1083 252.139C65.3121 252.139 65.5329 252.02 65.7537 251.986L65.9575 251.595C65.9575 251.595 65.9575 251.442 66.0763 251.358L64.8535 251.646ZM65.414 237.533C63.3001 238.672 61.0892 239.621 58.8073 240.369C56.57 241.132 54.201 241.432 51.8441 241.252C48.268 240.749 44.8657 239.392 41.9256 237.295L41.3312 238.059C44.4238 240.231 47.9955 241.624 51.7422 242.118C54.224 242.298 56.7161 241.963 59.0621 241.133C61.4138 240.37 63.6884 239.386 65.8556 238.195C68.9417 236.521 71.9404 234.69 74.8399 232.71C74.9927 232.336 75.1286 231.962 75.2645 231.623C72.1085 233.761 68.8432 235.734 65.4819 237.533H65.414Z" fill="white"/>
<path d="M69.1502 261.836C61.0999 264.656 40.0063 275.186 35.3697 279.499C35.3499 279.525 35.3389 279.557 35.3384 279.59C35.3379 279.622 35.3478 279.654 35.3668 279.681C35.3858 279.708 35.4129 279.727 35.444 279.738C35.4751 279.748 35.5086 279.748 35.5396 279.737C40.0912 276.527 66.1101 263.773 70.2371 262.21C70.2371 262.21 70.4409 262.703 70.5258 262.839C70.6108 262.974 70.7636 262.923 70.7636 262.737C70.6915 262.278 70.5894 261.824 70.4579 261.378L69.1502 261.836Z" fill="#263238"/>
<path d="M63.1554 293.154C62.3912 289.248 59.47 273.589 59.0454 269.649C59.0454 269.649 59.0454 269.564 59.1473 269.649C60.3022 273.317 63.631 288.687 64.4122 292.594C66.1401 300.363 67.4385 308.221 68.3015 316.133C68.3015 316.269 68.0977 316.354 68.0467 316.133C65.9917 308.626 64.65 300.848 63.1554 293.154Z" fill="#263238"/>
<path d="M57.3979 267.339C59.5888 262.567 62.2722 258.032 64.6839 253.379C67.0956 248.725 69.5922 244.106 71.834 239.401H71.9359C70.5772 242.611 69.2185 245.821 67.7579 248.98C68.1995 248.487 68.6071 247.961 69.0147 247.434C69.762 246.483 70.4413 245.481 71.1207 244.479C71.1207 244.479 71.2396 244.479 71.2226 244.479C70.6939 245.603 70.0386 246.663 69.2695 247.638C68.7009 248.371 68.0763 249.058 67.4013 249.693C66.8068 250.984 66.1784 252.275 65.5331 253.548C63.4419 258.29 60.9949 262.866 58.2131 267.237C58.1112 267.56 57.313 267.56 57.3979 267.339Z" fill="#263238"/>
<path d="M34.1299 325.661C42.4009 325.559 73.6338 319.428 81.3613 317.831C81.2594 317.016 81.3613 316.728 81.1575 315.573C81.1575 315.42 81.3783 315.352 81.4123 315.573C81.6161 316.677 82.3634 318.867 82.0577 318.969C78.3382 320.43 42.2481 326.731 34.1299 326.052C34.1042 326.052 34.0788 326.047 34.0551 326.037C34.0314 326.027 34.0099 326.012 33.9918 325.994C33.9736 325.976 33.9593 325.955 33.9494 325.931C33.9396 325.907 33.9346 325.882 33.9346 325.856C33.9346 325.831 33.9396 325.805 33.9494 325.782C33.9593 325.758 33.9736 325.736 33.9918 325.718C34.0099 325.7 34.0314 325.686 34.0551 325.676C34.0788 325.666 34.1042 325.661 34.1299 325.661Z" fill="#263238"/>
<path d="M118.233 320.005L176.385 327.835L198.447 247.01L140.295 239.197L118.233 320.005Z" fill="#263238"/>
<path d="M121.103 320.379L179.238 328.208L201.3 247.4L143.165 239.571L121.103 320.379Z" fill="#37474F"/>
<path d="M169.32 281.317C168.957 282.827 168.053 284.151 166.779 285.04C165.506 285.929 163.95 286.32 162.408 286.14C161.68 286.063 160.977 285.83 160.348 285.457C159.718 285.085 159.176 284.58 158.759 283.979C158.341 283.378 158.058 282.694 157.929 281.974C157.8 281.254 157.827 280.514 158.009 279.805C158.372 278.294 159.275 276.968 160.548 276.076C161.822 275.184 163.377 274.789 164.921 274.965C165.651 275.041 166.355 275.275 166.987 275.649C167.618 276.022 168.161 276.528 168.578 277.131C168.996 277.734 169.278 278.421 169.406 279.143C169.534 279.865 169.505 280.607 169.32 281.317Z" fill="white"/>
<path d="M200.722 264.061C203.151 270.855 210.08 279.703 210.182 285.07C210.251 286.392 209.894 287.701 209.163 288.805C208.433 289.908 207.367 290.748 206.123 291.201C206.123 291.201 211.218 294.377 210.42 299.251C210.063 301.765 205.716 303.395 205.716 303.395C206.815 304.174 207.677 305.241 208.208 306.479C208.738 307.716 208.916 309.077 208.722 310.41C208.008 313.806 203.762 314.944 203.762 314.944C203.762 314.944 206.31 319.309 204.459 322.57C200.688 329.176 170.78 326.136 167.282 314.638C165.583 309.289 172.903 310.427 172.903 310.427C172.903 310.427 162.849 306.266 163.324 300.084C163.8 293.901 173.141 295.94 173.141 295.94C173.141 295.94 163.443 291.829 164.649 285.461C165.855 279.092 174.839 282.488 174.839 282.488C174.839 282.488 168.64 277.393 170.627 272.638C173.905 264.91 185.488 276.222 192.214 275.321L196.952 264.843L200.722 264.061Z" fill="#F7A9A0"/>
<path d="M205.767 274.133C204.068 267.492 212.764 260.393 212.017 253.752C211.015 244.836 200.332 252.394 196.867 264.826L195.865 275.016L205.767 274.133Z" fill="#F7A9A0"/>
<path d="M203.134 315.216C203.156 315.216 203.178 315.225 203.194 315.241C203.21 315.257 203.219 315.278 203.219 315.301C203.219 315.323 203.21 315.345 203.194 315.361C203.178 315.377 203.156 315.386 203.134 315.386C192.675 316.857 182.016 315.122 172.563 310.41C172.258 310.257 172.394 309.696 172.75 309.815C182.562 313.08 192.798 314.9 203.134 315.216Z" fill="#263238"/>
<path d="M205.851 303.463C205.97 303.463 205.97 303.667 205.851 303.684C194.285 305.219 182.551 302.568 172.767 296.211C172.427 295.973 172.36 295.43 172.767 295.668C179.612 299.608 196.137 303.31 205.851 303.463Z" fill="#263238"/>
<path d="M174.194 281.775C183.824 287.906 194.438 290.267 205.699 291.269C205.834 291.269 205.817 291.49 205.699 291.507C200.06 292.56 192.944 291.218 187.509 289.707C182.42 288.404 177.764 285.786 174.007 282.115C173.837 281.962 173.99 281.639 174.194 281.775Z" fill="#263238"/>
<path d="M102.116 215.301C102.32 220.396 102.472 231.962 94.626 231.096C91.4722 230.47 88.5655 228.948 86.2531 226.714C83.7779 224.659 81.5392 222.335 79.5785 219.785C77.3294 217.014 75.3075 214.066 73.5324 210.97C73.5324 210.852 73.2606 210.97 73.3455 211.106C75.1458 214.214 76.6404 217.424 78.7463 220.362C80.7349 223.21 83.1001 225.775 85.7775 227.988C88.2921 230.324 91.4642 231.83 94.8638 232.302C96.3218 232.405 97.7703 231.999 98.9626 231.153C100.155 230.308 101.017 229.075 101.402 227.665C102.562 223.649 102.806 219.424 102.116 215.301Z" fill="#263238"/>
<path d="M94.3881 225.984C88.7155 226.477 79.4425 215.794 76.7251 208.542C77.4377 204.763 78.3389 201.022 79.4255 197.333C80.2917 193.749 81.1238 189.724 81.7353 186.005L104.256 195.091C102.245 199.557 100.785 204.25 99.9077 209.068C99.8576 209.582 99.8576 210.1 99.9077 210.614C99.9077 210.614 99.9077 210.784 99.9077 210.869C99.9587 213.841 99.8568 225.509 94.3881 225.984Z" fill="#F7A9A0"/>
<path d="M99.8397 210.614C99.8484 210.699 99.8484 210.784 99.8397 210.869C99.0318 210.863 98.2255 210.795 97.4281 210.665C83.9431 208.372 83.1788 191.371 83.2467 186.633L88.8853 188.892L104.171 195.091C102.161 199.555 100.706 204.25 99.8397 209.068C99.7904 209.582 99.7904 210.1 99.8397 210.614Z" fill="#263238"/>
<path d="M79.1537 160.529C76.81 169.021 81.8372 193.019 87.9173 198.25C96.7488 205.858 110.879 206.249 117.265 195.702C123.447 185.512 116.348 154.245 109.571 149.524C99.602 142.544 82.6014 148.063 79.1537 160.529Z" fill="#F7A9A0"/>
<path d="M102.88 175.713C102.88 175.713 102.778 175.815 102.88 175.882C103.254 177.496 103.424 179.415 102.065 180.247C102.065 180.247 102.065 180.349 102.065 180.332C103.746 179.721 103.509 177.19 102.88 175.713Z" fill="#263238"/>
<path d="M101.096 174.32C98.4468 174.66 99.3979 179.925 101.759 179.619C104.119 179.313 103.355 174.048 101.096 174.32Z" fill="#263238"/>
<path d="M112.102 173.929C112.102 173.929 112.255 173.929 112.255 174.065C112.475 175.764 113.002 177.547 114.564 177.853V177.938C112.713 177.938 112.051 175.492 112.102 173.929Z" fill="#263238"/>
<path d="M113.291 171.959C115.89 171.331 116.96 176.562 114.548 177.054C112.136 177.547 111.117 172.486 113.291 171.959Z" fill="#263238"/>
<path d="M98.6168 172.231C99.2796 171.924 99.9208 171.572 100.536 171.178C101.248 170.902 101.847 170.393 102.234 169.734C102.322 169.5 102.329 169.242 102.255 169.003C102.182 168.763 102.031 168.555 101.827 168.41C101.382 168.183 100.884 168.079 100.385 168.109C99.8868 168.138 99.4052 168.301 98.9905 168.58C98.0693 169.016 97.343 169.778 96.9524 170.72C96.8652 170.946 96.8485 171.194 96.9047 171.431C96.9609 171.668 97.0872 171.882 97.2672 172.045C97.4472 172.208 97.6724 172.314 97.9132 172.347C98.1541 172.38 98.3993 172.34 98.6168 172.231Z" fill="#263238"/>
<path d="M114.989 170.346C114.242 170.346 113.545 170.21 112.798 170.142C112.019 170.178 111.249 169.957 110.607 169.514C110.437 169.332 110.33 169.099 110.302 168.851C110.274 168.603 110.328 168.353 110.454 168.138C110.773 167.754 111.187 167.462 111.656 167.292C112.125 167.121 112.631 167.079 113.121 167.17C114.145 167.197 115.121 167.61 115.855 168.325C116.012 168.496 116.117 168.709 116.156 168.937C116.195 169.166 116.167 169.402 116.075 169.615C115.984 169.829 115.833 170.011 115.64 170.141C115.447 170.27 115.221 170.341 114.989 170.346Z" fill="#263238"/>
<path d="M103.117 190.998C103.533 191.415 104.078 191.678 104.663 191.745C105.272 191.628 105.851 191.385 106.361 191.032C106.361 191.032 106.48 191.032 106.361 191.117C106.177 191.475 105.9 191.777 105.56 191.992C105.219 192.207 104.828 192.327 104.425 192.339C104.08 192.302 103.753 192.165 103.484 191.945C103.216 191.725 103.017 191.431 102.914 191.1C102.948 191.015 103.066 190.913 103.117 190.998Z" fill="#263238"/>
<path d="M104.035 185.444C104.558 186.022 105.194 186.485 105.904 186.807C106.614 187.128 107.382 187.3 108.162 187.312C108.843 187.326 109.523 187.246 110.183 187.075L110.556 186.973L110.896 186.854C110.982 186.824 111.056 186.766 111.105 186.689C111.155 186.611 111.177 186.52 111.168 186.429C111.178 186.373 111.178 186.316 111.168 186.259V186.123C110.998 184.85 110.556 182.965 110.556 182.965C111.049 183.117 113.579 183.797 113.427 183.134C112.357 177.49 110.712 171.97 108.518 166.66C108.508 166.63 108.488 166.604 108.462 166.586C108.437 166.568 108.406 166.558 108.374 166.558C108.342 166.558 108.311 166.568 108.285 166.586C108.26 166.604 108.24 166.63 108.23 166.66C109.181 171.891 111.066 176.85 112.119 182.132C111.218 181.88 110.286 181.76 109.35 181.776C109.181 181.776 110.268 185.41 110.285 185.988C109.271 186.258 108.214 186.323 107.175 186.177C106.137 186.031 105.138 185.678 104.238 185.138C104.035 185.189 103.916 185.325 104.035 185.444Z" fill="#263238"/>
<path d="M109.436 186.769C108.894 187.757 108.111 188.593 107.16 189.198C106.646 189.497 106.054 189.633 105.462 189.588C104.12 189.469 103.899 188.297 103.967 187.245C104.003 186.667 104.111 186.096 104.29 185.546C105.834 186.485 107.634 186.913 109.436 186.769Z" fill="#263238"/>
<path d="M107.16 189.214C106.646 189.513 106.054 189.65 105.462 189.605C104.12 189.486 103.899 188.314 103.967 187.261C104.64 187.187 105.319 187.339 105.897 187.692C106.475 188.046 106.919 188.581 107.16 189.214Z" fill="#FF9ABB"/>
<path d="M114.191 156.538C112.832 154.653 111.338 152.768 109.979 152.615C108.62 152.462 108.468 155.723 105.648 156.538C101.827 157.625 99.1945 154.483 93.7597 155.264C85.8623 156.402 83.8413 163.637 86.0322 174.694C87.9853 184.578 82.2448 186.786 82.2448 186.786C82.2448 186.786 73.9568 165.845 78.5254 157.336C83.094 148.827 96.4601 142.628 107.398 147.469C111.287 149.218 114.191 156.538 114.191 156.538Z" fill="#263238"/>
<path d="M86.236 181.3C86.236 181.3 80.4106 173.742 76.9629 175.848C73.5152 177.954 78.1178 189.096 82.3637 190.454C82.8932 190.667 83.4604 190.771 84.0311 190.758C84.6017 190.745 85.1638 190.617 85.6832 190.38C86.2026 190.143 86.6684 189.803 87.0525 189.381C87.4366 188.959 87.7308 188.463 87.9174 187.924L86.236 181.3Z" fill="#F7A9A0"/>
<path d="M78.3555 179.024C78.3555 179.024 78.3555 179.024 78.3555 179.143C79.7218 179.75 80.9459 180.637 81.9491 181.745C82.9524 182.854 83.7126 184.16 84.1809 185.58C83.9972 185.295 83.7539 185.054 83.4679 184.872C83.1819 184.691 82.8599 184.573 82.5242 184.528C82.1884 184.483 81.8468 184.511 81.523 184.61C81.1991 184.71 80.9007 184.879 80.6483 185.105C80.6483 185.105 80.6483 185.274 80.7332 185.257C81.2394 185.067 81.7921 185.039 82.3152 185.175C82.8383 185.312 83.3062 185.608 83.6544 186.022C84.2167 186.727 84.7114 187.483 85.1319 188.28C85.2678 188.535 85.7433 188.382 85.6245 188.077C85.5056 184.272 82.3806 179.194 78.3555 179.024Z" fill="#263238"/>
<path d="M99.4663 144.48C96.1532 143.535 92.7213 143.071 89.2762 143.104C85.3869 143.223 73.5493 146.025 71.0528 148.878C68.5562 151.732 69.5752 163.145 69.762 164.809C69.9488 166.473 72.2416 176.341 76.2497 178.192C80.2579 180.043 77.9481 163.009 82.7545 156.487C87.5608 149.965 99.4663 144.48 99.4663 144.48Z" fill="#6934FF"/>
<path opacity="0.1" d="M99.4661 144.497C99.4661 144.497 87.5776 149.965 82.6693 156.487C77.761 163.009 80.1557 180.026 76.1816 178.192C75.2551 177.681 74.439 176.992 73.7803 176.164C73.1215 175.336 72.6331 174.386 72.3433 173.369C72.3433 168.274 73.1075 160.291 76.4023 154.313C79.4934 148.726 85.7603 145.142 92.7576 143.223C95.0265 143.452 97.2711 143.878 99.4661 144.497Z" fill="black"/>
<path d="M78.7293 188.111C78.3387 183.542 81.0391 170.702 84.7755 163.009C88.5119 155.315 102.048 149.048 104.035 148.844C108.892 148.369 110.319 150.543 111.015 149.948C111.711 149.354 106.039 144.683 104.544 144.089C102.315 143.371 99.9529 143.162 97.6321 143.478C95.5431 143.851 82.8563 147.163 79.035 153.396C75.2137 159.629 71.0867 176.086 72.785 179.84C73.2266 180.74 74.4834 181.147 75.1797 182.438C75.9949 184.136 76.6743 186.09 77.4046 187.244C78.1349 188.399 78.7633 188.501 78.7293 188.111Z" fill="#6934FF"/>
<path d="M85.3864 159.731C84.2081 159.222 83.0722 158.62 81.9897 157.931C80.8515 157.247 79.8019 156.426 78.8647 155.485C78.8647 155.485 78.6779 155.485 78.7458 155.587C79.5692 156.677 80.5611 157.629 81.684 158.406C82.8121 159.161 84.0749 159.691 85.4034 159.969C85.4349 159.967 85.4643 159.952 85.485 159.928C85.5057 159.904 85.5161 159.873 85.5138 159.841C85.5116 159.81 85.4969 159.781 85.473 159.76C85.4491 159.739 85.4179 159.729 85.3864 159.731Z" fill="#263238"/>
<path d="M77.9822 183.593C77.7954 183.287 77.5406 183.032 77.3368 182.744C77.0963 182.418 76.8967 182.065 76.7424 181.691C76.5318 180.959 76.2413 180.253 75.8762 179.585C75.4993 179.089 75.0662 178.639 74.5855 178.243C74.0094 177.827 73.5906 177.228 73.3966 176.545H73.2607C73.4645 177.92 74.5345 178.753 75.3158 179.806C75.713 180.527 76.0427 181.283 76.3008 182.064C76.6015 182.778 77.1261 183.374 77.7954 183.763C77.8803 183.814 78.0331 183.712 77.9822 183.593Z" fill="#263238"/>
<path d="M78.7631 178.464C78.2536 178.022 77.7271 177.632 77.2516 177.139C76.776 176.647 76.4024 176.12 76.0118 175.594C75.6211 175.067 75.3154 174.507 74.9418 173.895C74.5682 173.284 74.0077 172.689 73.6001 172.027C73.6001 172.027 73.4303 172.027 73.4812 172.129C73.9058 172.791 74.1945 173.556 74.5851 174.235C74.9352 174.824 75.3208 175.391 75.74 175.933C76.1363 176.459 76.5797 176.948 77.0647 177.394C77.5502 177.861 78.129 178.22 78.7631 178.447C78.7631 178.447 78.7971 178.498 78.7631 178.464Z" fill="#263238"/>
<path d="M79.7144 173.793C78.6379 173.144 77.6647 172.336 76.8271 171.399C76.0119 170.482 75.2307 169.513 74.4834 168.545C74.4834 168.545 74.3136 168.545 74.3645 168.545C74.9199 169.696 75.6221 170.769 76.4535 171.738C76.8574 172.213 77.3196 172.636 77.8292 172.995C78.381 173.362 78.9668 173.675 79.5785 173.929C79.5785 173.929 79.7993 173.929 79.7144 173.793Z" fill="#263238"/>
<path d="M80.8351 169.276C80.3151 169.028 79.848 168.682 79.4594 168.257C78.9839 167.815 78.5253 167.357 78.0837 166.881C77.6422 166.422 77.2006 165.998 76.776 165.539C76.3172 165.109 75.9529 164.589 75.706 164.011C75.706 164.011 75.5532 164.011 75.5702 164.011C75.7034 164.63 75.9765 165.211 76.3684 165.709C76.7469 166.313 77.1789 166.881 77.6592 167.407C78.1341 167.897 78.6389 168.356 79.1707 168.783C79.6199 169.194 80.182 169.46 80.7841 169.547C80.802 169.551 80.8203 169.551 80.8381 169.547C80.8558 169.543 80.8727 169.536 80.8877 169.526C80.9027 169.515 80.9155 169.502 80.9254 169.487C80.9353 169.472 80.9421 169.455 80.9455 169.437C80.9488 169.419 80.9486 169.401 80.9449 169.383C80.9411 169.365 80.934 169.348 80.9237 169.333C80.9134 169.318 80.9003 169.306 80.8851 169.296C80.8699 169.286 80.8529 169.279 80.8351 169.276Z" fill="#263238"/>
<path d="M81.2768 163.739C80.7786 163.4 80.303 163.043 79.8501 162.669C79.4086 162.279 78.967 161.888 78.5424 161.48C78.1178 161.073 77.6253 160.631 77.2007 160.173C77.2007 160.173 77.0309 160.173 77.0818 160.258C77.4052 160.792 77.7746 161.298 78.1857 161.769C78.5916 162.229 79.0285 162.66 79.4935 163.06C79.9542 163.461 80.4422 163.83 80.9541 164.164C81.4567 164.548 82.0358 164.82 82.6524 164.962C82.6664 164.953 82.6779 164.94 82.6859 164.925C82.6938 164.91 82.698 164.894 82.698 164.877C82.698 164.86 82.6938 164.844 82.6859 164.829C82.6779 164.814 82.6664 164.801 82.6524 164.792C82.2274 164.399 81.7668 164.047 81.2768 163.739Z" fill="#263238"/>
<path d="M88.4605 156.606C87.917 156.13 87.3905 155.655 86.7621 155.213C86.1337 154.772 85.5563 154.381 84.9109 154.007C83.692 153.259 82.3931 152.65 81.0386 152.19C81.0386 152.19 80.8858 152.275 81.0386 152.326C83.4503 153.821 85.9469 155.213 88.3586 156.742C88.3766 156.755 88.3992 156.761 88.4215 156.758C88.4438 156.755 88.4639 156.743 88.4775 156.725C88.491 156.707 88.4968 156.684 88.4936 156.662C88.4904 156.64 88.4785 156.619 88.4605 156.606Z" fill="#263238"/>
<path d="M90.5839 152.309C90.0593 151.852 89.4904 151.448 88.8856 151.103C87.5454 150.429 86.1322 149.91 84.6736 149.558C84.5717 149.558 84.5208 149.66 84.6736 149.694C85.9814 150.288 87.2891 150.866 88.5459 151.528C89.1573 151.868 89.7857 152.207 90.3631 152.598C90.9406 152.989 91.4331 153.515 92.0615 153.94C91.6853 153.301 91.1825 152.746 90.5839 152.309Z" fill="#263238"/>
<path d="M94.0651 149.948C93.5451 149.48 92.9756 149.07 92.3667 148.725C91.2553 148.051 90.038 147.569 88.7662 147.299C88.7662 147.299 88.6473 147.418 88.7662 147.452C89.9475 147.914 91.0844 148.482 92.1629 149.15C92.7064 149.49 93.2499 149.863 93.8613 150.237C94.4727 150.611 94.8973 151.086 95.4578 151.392C95.0405 150.868 94.5741 150.384 94.0651 149.948Z" fill="#263238"/>
<path d="M96.426 147.265C95.8995 146.959 95.3391 146.671 94.7277 146.399C94.1966 146.101 93.6243 145.883 93.0293 145.753V145.906L96.1203 147.724C97.0303 148.354 97.8727 149.077 98.6339 149.88C98.7358 149.88 98.6339 149.88 98.6339 149.88C98.1792 148.806 97.4094 147.894 96.426 147.265Z" fill="#263238"/>
<path d="M99.7037 146.008C98.6987 145.333 97.575 144.855 96.3919 144.599C96.307 144.599 96.273 144.718 96.3919 144.751C97.4983 145.155 98.5353 145.728 99.4659 146.45C100.409 147.135 101.275 147.921 102.047 148.794C102.047 148.794 102.166 148.794 102.132 148.794C101.562 147.681 100.728 146.725 99.7037 146.008Z" fill="#263238"/>
<path d="M107.228 147.146C106.916 146.834 106.587 146.539 106.243 146.263C105.898 145.989 105.535 145.739 105.156 145.516C104.765 145.278 104.374 145.057 104.001 144.802C104.001 144.802 103.831 144.887 104.001 144.938C104.398 145.169 104.773 145.436 105.122 145.736L106.107 146.552L107.109 147.367C107.423 147.672 107.758 147.956 108.111 148.216C107.858 147.827 107.562 147.468 107.228 147.146Z" fill="#263238"/>
<path d="M211.083 115.013C210.375 121.818 207.789 128.293 203.615 133.714C199.44 139.135 193.841 143.289 187.442 145.711C181.043 148.134 174.096 148.73 167.378 147.432C160.66 146.135 154.435 142.996 149.398 138.365L130.92 141.083L140.159 125.118C138.042 119.924 137.136 114.316 137.511 108.72C137.885 103.123 139.529 97.6856 142.319 92.8195C145.108 87.9535 148.97 83.787 153.61 80.6363C158.251 77.4856 163.548 75.4335 169.1 74.6358C174.652 73.8381 180.312 74.3158 185.652 76.0326C190.992 77.7494 195.87 80.6602 199.917 84.5439C203.964 88.4277 207.072 93.1824 209.007 98.4471C210.942 103.712 211.652 109.348 211.083 114.928V115.013Z" fill="white"/>
<path d="M211.082 115.013C210.362 121.808 207.783 128.272 203.626 133.695C201.595 136.434 199.155 138.846 196.391 140.845C193.671 142.915 190.668 144.585 187.475 145.804C184.289 147.052 180.945 147.852 177.54 148.182C175.845 148.325 174.143 148.359 172.444 148.284C170.735 148.229 169.032 148.047 167.349 147.741C160.543 146.492 154.22 143.369 149.092 138.722L149.517 138.858L131.021 141.66L129.68 141.864L130.359 140.692L139.547 124.677V125.322C137.374 120.032 136.445 114.313 136.83 108.606C137.216 102.9 138.907 97.3579 141.772 92.4079C144.65 87.4844 148.604 83.2751 153.338 80.0948C159.23 76.212 166.101 74.0771 173.156 73.9373C180.212 73.7974 187.162 75.6583 193.204 79.3045C199.245 82.9507 204.131 88.2332 207.295 94.5406C210.459 100.848 211.772 107.922 211.082 114.945V115.013ZM211.082 115.013C211.672 109.453 210.977 103.832 209.052 98.5826C207.127 93.3332 204.023 88.5958 199.979 84.7352C195.934 80.8746 191.058 77.9938 185.725 76.3148C180.391 74.6357 174.744 74.2032 169.218 75.0506C163.73 75.8707 158.502 77.9328 153.932 81.0798C149.417 84.2515 145.645 88.3658 142.876 93.1382C140.16 97.9224 138.558 103.257 138.188 108.746C137.855 114.239 138.742 119.738 140.787 124.847L140.923 125.169L140.753 125.475L131.446 141.406L130.801 140.438L149.279 137.839H149.534L149.72 138.009C154.652 142.629 160.775 145.781 167.4 147.112C169.079 147.456 170.783 147.661 172.495 147.724C174.192 147.845 175.894 147.845 177.59 147.724C180.965 147.461 184.286 146.73 187.458 145.55C190.646 144.398 193.646 142.778 196.357 140.743C197.728 139.747 199.032 138.663 200.264 137.499C201.472 136.295 202.606 135.019 203.66 133.678C207.803 128.257 210.371 121.799 211.082 115.013Z" fill="#263238"/>
<path d="M170.033 132.234L154.272 116.27L159.571 111.039L168.776 120.363L187.917 90.3528L194.2 94.3609L170.033 132.234Z" fill="#6934FF"/>
</svg>
