<svg width="307" height="229" viewBox="0 0 307 229" fill="none" xmlns="http://www.w3.org/2000/svg">
<path d="M307 201.023H0V201.177H307V201.023Z" fill="#EBEBEB"/>
<path d="M276.239 210.903H255.903V211.056H276.239V210.903Z" fill="#EBEBEB"/>
<path d="M203.369 212.573H198.033V212.726H203.369V212.573Z" fill="#EBEBEB"/>
<path d="M255.289 205.205H243.506V205.358H255.289V205.205Z" fill="#EBEBEB"/>
<path d="M58.7291 206.236H32.2104V206.39H58.7291V206.236Z" fill="#EBEBEB"/>
<path d="M68.0865 206.236H64.1999V206.39H68.0865V206.236Z" fill="#EBEBEB"/>
<path d="M138.242 208.828H80.7226V208.981H138.242V208.828Z" fill="#EBEBEB"/>
<path d="M145.518 173.639H26.9607C26.032 173.638 25.1418 173.267 24.4856 172.61C23.8295 171.953 23.4609 171.062 23.4609 170.133V3.47524C23.469 2.5518 23.8411 1.66884 24.4964 1.01815C25.1517 0.367453 26.0373 0.0015819 26.9607 0H145.518C146.448 0 147.34 0.369375 147.997 1.02687C148.655 1.68436 149.024 2.57611 149.024 3.50594V170.133C149.024 171.063 148.655 171.955 147.997 172.612C147.34 173.27 146.448 173.639 145.518 173.639ZM26.9607 0.1228C26.0727 0.124427 25.2216 0.478346 24.5942 1.10687C23.9668 1.7354 23.6144 2.58718 23.6144 3.47524V170.133C23.6144 171.021 23.9668 171.873 24.5942 172.502C25.2216 173.13 26.0727 173.484 26.9607 173.486H145.518C146.407 173.484 147.258 173.13 147.887 172.502C148.515 171.874 148.869 171.022 148.87 170.133V3.47524C148.869 2.58662 148.515 1.73485 147.887 1.1065C147.258 0.478147 146.407 0.124424 145.518 0.1228H26.9607Z" fill="#EBEBEB"/>
<path d="M278.332 173.639H159.769C158.84 173.638 157.949 173.268 157.292 172.611C156.635 171.953 156.265 171.063 156.263 170.133V3.47524C156.273 2.55124 156.646 1.66829 157.302 1.01776C157.959 0.367239 158.845 0.00156465 159.769 0H278.332C279.255 0.00319556 280.139 0.369781 280.793 1.0203C281.447 1.67082 281.818 2.55286 281.826 3.47524V170.133C281.826 171.061 281.458 171.951 280.803 172.608C280.149 173.265 279.26 173.636 278.332 173.639ZM159.769 0.1228C158.88 0.124424 158.029 0.478147 157.4 1.1065C156.772 1.73485 156.418 2.58662 156.417 3.47524V170.133C156.418 171.022 156.772 171.874 157.4 172.502C158.029 173.13 158.88 173.484 159.769 173.486H278.332C279.221 173.484 280.073 173.13 280.701 172.502C281.329 171.874 281.683 171.022 281.685 170.133V3.47524C281.683 2.58662 281.329 1.73485 280.701 1.1065C280.073 0.478147 279.221 0.124424 278.332 0.1228H159.769Z" fill="#EBEBEB"/>
<path d="M134.128 141.754H56.5064V147.231H134.128V141.754Z" fill="#EBEBEB"/>
<path d="M134.128 141.754H100.377V147.231H134.128V141.754Z" fill="#E0E0E0"/>
<path d="M67.9759 147.231H56.5064V201.024H67.9759V147.231Z" fill="#EBEBEB"/>
<path d="M67.9759 152.782L56.5064 148.877V147.231H67.9759V152.782Z" fill="#E0E0E0"/>
<path d="M134.128 147.231H122.659V201.024H134.128V147.231Z" fill="#E0E0E0"/>
<path d="M111.846 147.231H100.377V201.024H111.846V147.231Z" fill="#EBEBEB"/>
<path d="M111.84 152.782L100.377 148.877V147.231H111.84V152.782Z" fill="#E0E0E0"/>
<path d="M90.258 147.231H78.7885V201.024H90.258V147.231Z" fill="#E0E0E0"/>
<path d="M141.423 19.7523H43.594V103.054H141.423V19.7523Z" fill="#EBEBEB"/>
<path d="M141.423 103.047H142.516V19.7461H141.423V103.047Z" fill="#E0E0E0"/>
<path d="M137.745 99.3636V23.4302L47.2841 23.4302V99.3636H137.745Z" fill="#F5F5F5"/>
<path d="M91.4185 87.8388C96.9445 69.4188 98.4795 42.2493 110.231 45.9947C121.983 49.7401 106.59 89.9141 106.59 89.9141L91.4185 87.8388Z" fill="white"/>
<path d="M100.911 88.7536C95.2867 62.0568 96.705 26.6167 79.2306 27.4272C61.7561 28.2377 79.2306 89.914 79.2306 89.914L100.911 88.7536Z" fill="white"/>
<path d="M113.258 85.7573H75.0001C74.2194 85.7322 73.4601 86.0148 72.8858 86.5443C72.3116 87.0738 71.9683 87.8077 71.9301 88.5878C71.1503 106.21 74.0361 124.2 79.4086 141.754H108.703C114.075 124.169 116.961 106.21 116.181 88.5878C116.151 87.8308 115.831 87.1144 115.287 86.5873C114.742 86.0602 114.016 85.763 113.258 85.7573Z" fill="#EBEBEB"/>
<path d="M200.287 29.0421H198.132V201.023H200.287V29.0421Z" fill="#E0E0E0"/>
<path d="M250.936 29.0421H248.781V201.023H250.936V29.0421Z" fill="#E0E0E0"/>
<path d="M185.004 29.0421H182.849V201.023H185.004V29.0421Z" fill="#EBEBEB"/>
<path d="M235.653 29.0421H233.498V201.023H235.653V29.0421Z" fill="#EBEBEB"/>
<path d="M250.936 27.8633H182.849V30.2149H250.936V27.8633Z" fill="#EBEBEB"/>
<path d="M250.936 69.9775H182.849V72.3292H250.936V69.9775Z" fill="#EBEBEB"/>
<path d="M250.936 112.092H182.849V114.443H250.936V112.092Z" fill="#EBEBEB"/>
<path d="M250.936 154.206H182.849V156.558H250.936V154.206Z" fill="#EBEBEB"/>
<path d="M250.936 196.32H182.849V198.672H250.936V196.32Z" fill="#EBEBEB"/>
<path d="M250.936 27.8633H235.653V30.2149H250.936V27.8633Z" fill="#E0E0E0"/>
<path d="M250.936 69.9775H235.653V72.3292H250.936V69.9775Z" fill="#E0E0E0"/>
<path d="M250.936 112.092H235.653V114.443H250.936V112.092Z" fill="#E0E0E0"/>
<path d="M250.936 154.206H235.653V156.558H250.936V154.206Z" fill="#E0E0E0"/>
<path d="M250.936 196.32H235.653V198.672H250.936V196.32Z" fill="#E0E0E0"/>
<path d="M210.313 42.1878V38.8722H202.129V42.1878C202.129 43.2273 201.716 44.2243 200.982 44.9599C200.247 45.6955 199.251 46.1096 198.211 46.1113C197.172 46.1113 196.175 46.5238 195.439 47.2582C194.704 47.9927 194.29 48.9891 194.288 50.0286V69.9959H218.16V50.0286C218.159 48.9891 217.745 47.9927 217.009 47.2582C216.273 46.5238 215.276 46.1113 214.237 46.1113C213.196 46.1113 212.198 45.6979 211.463 44.9621C210.727 44.2263 210.313 43.2284 210.313 42.1878Z" fill="#F0F0F0"/>
<path d="M227.254 98.3995H191.384V112.098H227.254V98.3995Z" fill="#F0F0F0"/>
<path d="M227.254 112.092H233.498V98.3934H227.254V112.092Z" fill="#E6E6E6"/>
<path d="M227.254 106.001H233.498V104.491H227.254V106.001Z" fill="#EBEBEB"/>
<path d="M227.254 104.49H191.384V106.001H227.254V104.49Z" fill="#F5F5F5"/>
<path d="M217.645 172.104H189.628V196.32H217.645V172.104Z" fill="#F0F0F0"/>
<path d="M217.645 196.326H222.52V172.11H217.645V196.326Z" fill="#E6E6E6"/>
<path d="M217.645 185.551H222.52V182.88H217.645V185.551Z" fill="#EBEBEB"/>
<path d="M217.645 182.88H189.628V185.551H217.645V182.88Z" fill="#F5F5F5"/>
<path d="M217.645 181.007H222.52V180.055H217.645V181.007Z" fill="#EBEBEB"/>
<path d="M217.645 180.055H189.628V181.007H217.645V180.055Z" fill="#F5F5F5"/>
<path d="M196.455 129.585H191.384V154.206H196.455V129.585Z" fill="#F0F0F0"/>
<path d="M196.455 138.359H191.384V145.432H196.455V138.359Z" fill="#FAFAFA"/>
<path d="M196.455 154.212H213.709V129.591H196.455V154.212Z" fill="#E6E6E6"/>
<path d="M204.29 126.404H198.561V154.206H204.29V126.404Z" fill="#EBEBEB"/>
<path d="M204.29 135.24H198.561V139.519H204.29V135.24Z" fill="#FAFAFA"/>
<path d="M204.29 142.387H198.561V146.666H204.29V142.387Z" fill="#FAFAFA"/>
<path d="M204.296 154.206H223.778V126.404H204.296V154.206Z" fill="#E0E0E0"/>
<path d="M210.67 129.585H207.581V154.206H210.67V129.585Z" fill="#F0F0F0"/>
<path d="M210.135 132.704H208.109V151.087H210.135V132.704Z" fill="#FAFAFA"/>
<path d="M210.663 154.212H221.157V129.591H210.663V154.212Z" fill="#E6E6E6"/>
<path d="M218.916 128.289H215.428V154.206H218.916V128.289Z" fill="#EBEBEB"/>
<path d="M218.916 136.523H215.428V140.514H218.916V136.523Z" fill="#FAFAFA"/>
<path d="M218.916 143.191H215.428V147.182H218.916V143.191Z" fill="#FAFAFA"/>
<path d="M218.916 154.206H230.766V128.289H218.916V154.206Z" fill="#E0E0E0"/>
<path d="M217.329 96.1627C220.312 93.1798 220.312 88.3436 217.329 85.3607C214.347 82.3778 209.51 82.3778 206.527 85.3607C203.545 88.3436 203.545 93.1798 206.527 96.1627C209.51 99.1456 214.347 99.1456 217.329 96.1627Z" fill="#F5F5F5"/>
<path d="M221.231 98.3142C224.117 97.8459 226.076 95.1272 225.608 92.2419C225.139 89.3566 222.421 87.3972 219.535 87.8656C216.65 88.3339 214.691 91.0526 215.159 93.9379C215.627 96.8232 218.346 98.7826 221.231 98.3142Z" fill="#EBEBEB"/>
<path d="M153.5 228.752C219.249 228.752 272.548 225.64 272.548 221.801C272.548 217.963 219.249 214.851 153.5 214.851C87.7514 214.851 34.4515 217.963 34.4515 221.801C34.4515 225.64 87.7514 228.752 153.5 228.752Z" fill="#F5F5F5"/>
<path d="M77.4315 174.186H156.294V214.9C156.294 215.422 156.191 215.938 155.991 216.42C155.792 216.902 155.499 217.34 155.13 217.709C154.761 218.078 154.323 218.371 153.841 218.57C153.359 218.77 152.843 218.873 152.321 218.873H81.4041C80.8824 218.873 80.3658 218.77 79.8839 218.57C79.4019 218.371 78.9639 218.078 78.5951 217.709C78.2262 217.34 77.9336 216.902 77.7339 216.42C77.5343 215.938 77.4315 215.422 77.4315 214.9V174.186Z" fill="#6934FF"/>
<path d="M77.4315 174.186H133.238L126.373 165.399C125.618 164.435 123.752 163.656 122.198 163.656H72.0099C70.4626 163.656 69.8118 164.435 70.567 165.399L77.4315 174.186Z" fill="#6934FF"/>
<path opacity="0.2" d="M77.4315 174.186H133.238L126.373 165.399C125.618 164.435 123.752 163.656 122.198 163.656H72.0099C70.4626 163.656 69.8118 164.435 70.567 165.399L77.4315 174.186Z" fill="black"/>
<path d="M156.294 174.186H100.493L107.358 168.457C108.113 167.843 109.98 167.321 111.533 167.321H161.715C163.269 167.321 163.913 167.831 163.158 168.457L156.294 174.186Z" fill="#6934FF"/>
<path opacity="0.2" d="M100.493 174.186H156.294V214.9C156.294 215.422 156.191 215.938 155.991 216.42C155.792 216.902 155.499 217.34 155.13 217.709C154.761 218.078 154.323 218.371 153.841 218.57C153.359 218.77 152.843 218.873 152.321 218.873H104.466C103.944 218.873 103.428 218.77 102.946 218.57C102.464 218.371 102.026 218.078 101.657 217.709C101.288 217.34 100.995 216.902 100.796 216.42C100.596 215.938 100.493 215.422 100.493 214.9V174.186Z" fill="white"/>
<path opacity="0.5" d="M84.3575 174.186V202.11L86.2854 200.588L87.6424 202.11L88.8212 200.416L90.0308 202.11L91.7132 200.839L93.5675 202.11V174.186H84.3575Z" fill="white"/>
<path d="M96.8401 113.271L86.924 104.945" stroke="#6934FF" stroke-miterlimit="10"/>
<path d="M101.979 117.587L98.9584 115.045" stroke="#6934FF" stroke-miterlimit="10"/>
<path d="M131.685 135.012L164.399 94.1261L120.841 57.5563L91.9833 90.6693L87.6853 98.9522C87.472 99.1873 87.3094 99.4639 87.2078 99.7647C87.1062 100.066 87.0677 100.384 87.0948 100.7C87.1219 101.017 87.2139 101.324 87.3652 101.603C87.5165 101.883 87.7237 102.128 87.9739 102.323L127.27 135.319C127.909 135.834 128.719 136.089 129.537 136.032C130.356 135.975 131.123 135.611 131.685 135.012Z" fill="#6934FF"/>
<path opacity="0.5" d="M109.249 104.859L104.54 112.442L106.437 112.853L107.082 114.609L108.34 114.683L108.924 116.187L110.465 116.635L111.65 118.52L116.359 110.937L109.249 104.859Z" fill="white"/>
<path opacity="0.1" d="M162.974 92.9288L133.637 125.655L91.9649 90.6693L120.841 57.5563L162.974 92.9288Z" fill="black"/>
<path d="M162.974 92.9287L133.637 125.655L145.782 126.551L174.665 93.4383L162.974 92.9287Z" fill="#6934FF"/>
<path opacity="0.3" d="M162.974 92.9287L133.637 125.655L145.782 126.551L174.665 93.4383L162.974 92.9287Z" fill="black"/>
<path d="M109.157 57.0405L79.8139 89.7729L91.9649 90.6693L120.841 57.5563L109.157 57.0405Z" fill="#6934FF"/>
<path opacity="0.4" d="M109.157 57.0405L79.8139 89.7729L91.9649 90.6693L120.841 57.5563L109.157 57.0405Z" fill="black"/>
<path opacity="0.1" d="M153.942 103.005L162.974 92.9288L120.841 57.5563L115.45 70.5485L153.942 103.005Z" fill="black"/>
<path opacity="0.2" d="M91.9649 90.6693L120.841 57.5563L115.45 70.5485L95.1148 93.3156L91.9649 90.6693Z" fill="black"/>
<path d="M173.148 31.314C173.265 31.7069 173.148 32.0938 172.89 32.1674C172.632 32.2411 172.331 31.9832 172.215 31.5903C172.098 31.1973 172.215 30.8105 172.473 30.7307C172.73 30.6509 173.037 30.921 173.148 31.314Z" fill="#263238"/>
<path d="M173.191 32.0875C173.075 33.4385 172.774 34.767 172.295 36.0355C172.623 36.1494 172.972 36.1903 173.318 36.1553C173.663 36.1203 173.997 36.0103 174.296 35.8329L173.191 32.0875Z" fill="#ED847E"/>
<path d="M173.965 28.6922C174.017 28.6622 174.056 28.6141 174.075 28.5571C174.087 28.5273 174.092 28.4955 174.091 28.4636C174.09 28.4317 174.082 28.4004 174.068 28.3716C174.054 28.3429 174.035 28.3172 174.01 28.2963C173.986 28.2754 173.958 28.2597 173.928 28.2501C173.568 28.1122 173.181 28.063 172.798 28.1069C172.415 28.1507 172.049 28.2862 171.73 28.5018C171.688 28.5439 171.663 28.5996 171.659 28.6586C171.656 28.7177 171.673 28.7761 171.709 28.8231C171.745 28.8701 171.797 28.9027 171.855 28.9147C171.912 28.9268 171.973 28.9175 172.024 28.8886C172.279 28.7213 172.571 28.6174 172.874 28.5853C173.177 28.5533 173.484 28.5941 173.768 28.7044C173.8 28.7161 173.834 28.721 173.868 28.7188C173.901 28.7167 173.934 28.7076 173.965 28.6922Z" fill="#263238"/>
<path d="M186.803 33.9418C187.074 37.196 187.878 43.1518 189.8 44.5272C189.8 44.5272 189.345 48.4384 182.432 49.4392C174.855 50.5567 178.257 46.2095 178.257 46.2095C182.241 44.6131 181.683 41.5615 180.541 38.7863L183.463 35.4338C184.587 34.1935 186.656 32.2779 186.803 33.9418Z" fill="#FFC3BD"/>
<path d="M192.274 46.1174C192.888 45.5587 191.66 43.3237 190.905 43.0106C188.928 42.1817 180.841 43.0106 177.802 45.6201C177.55 46.0519 177.398 46.5346 177.356 47.0328C177.315 47.5311 177.385 48.0323 177.563 48.4998L192.274 46.1174Z" fill="white"/>
<path d="M218.025 210.24C217.826 210.331 217.61 210.381 217.39 210.387C217.171 210.393 216.953 210.356 216.748 210.276C216.667 210.212 216.608 210.125 216.578 210.026C216.549 209.927 216.55 209.822 216.582 209.724C216.599 209.644 216.632 209.568 216.681 209.502C216.73 209.436 216.793 209.382 216.865 209.343C217.528 208.956 219.167 209.466 219.235 209.491C219.257 209.497 219.278 209.509 219.293 209.527C219.308 209.544 219.318 209.566 219.321 209.589C219.324 209.613 219.32 209.638 219.309 209.66C219.298 209.681 219.281 209.7 219.259 209.712C218.867 209.929 218.454 210.106 218.025 210.24ZM217.129 209.491L216.988 209.552C216.946 209.575 216.909 209.606 216.881 209.644C216.852 209.683 216.832 209.726 216.822 209.773C216.779 209.994 216.865 210.062 216.889 210.08C217.184 210.289 218.185 209.988 218.879 209.638C218.313 209.46 217.716 209.41 217.129 209.491Z" fill="#6934FF"/>
<path d="M219.235 209.718C219.215 209.724 219.193 209.724 219.173 209.718C218.559 209.595 217.276 208.827 217.209 208.25C217.199 208.159 217.221 208.068 217.272 207.992C217.322 207.916 217.398 207.859 217.485 207.833C217.57 207.795 217.662 207.775 217.755 207.775C217.848 207.775 217.94 207.795 218.025 207.833C218.738 208.128 219.29 209.503 219.309 209.558C219.321 209.576 219.327 209.598 219.327 209.62C219.327 209.641 219.321 209.663 219.309 209.681C219.3 209.692 219.289 209.702 219.276 209.708C219.263 209.714 219.249 209.718 219.235 209.718ZM217.638 208.042C217.62 208.036 217.601 208.036 217.583 208.042C217.442 208.103 217.448 208.177 217.454 208.207C217.491 208.551 218.363 209.171 218.983 209.399C218.799 208.999 218.369 208.226 217.933 208.042C217.838 208.005 217.733 208.005 217.638 208.042Z" fill="#6934FF"/>
<path d="M182.039 216.834C181.382 216.834 180.749 216.742 180.534 216.447C180.479 216.37 180.45 216.278 180.45 216.183C180.45 216.089 180.479 215.996 180.534 215.919C180.575 215.848 180.63 215.786 180.696 215.736C180.761 215.687 180.836 215.651 180.915 215.631C181.769 215.403 183.561 216.423 183.635 216.466C183.658 216.477 183.677 216.495 183.688 216.517C183.7 216.539 183.704 216.565 183.7 216.59C183.696 216.615 183.683 216.638 183.665 216.655C183.647 216.673 183.623 216.684 183.598 216.687C183.084 216.783 182.562 216.832 182.039 216.834ZM181.228 215.839C181.149 215.836 181.07 215.847 180.995 215.87C180.897 215.892 180.811 215.952 180.755 216.036C180.67 216.189 180.7 216.263 180.755 216.306C180.995 216.638 182.29 216.644 183.211 216.509C182.6 216.16 181.926 215.932 181.228 215.839Z" fill="#6934FF"/>
<path d="M183.586 216.693H183.537C182.923 216.416 181.695 215.305 181.787 214.728C181.787 214.593 181.91 214.421 182.241 214.39C182.361 214.377 182.483 214.388 182.598 214.424C182.713 214.46 182.82 214.52 182.911 214.599C183.568 215.133 183.703 216.515 183.709 216.57C183.712 216.591 183.709 216.613 183.701 216.633C183.692 216.652 183.678 216.669 183.66 216.681C183.637 216.693 183.611 216.697 183.586 216.693ZM182.358 214.617H182.284C182.063 214.617 182.051 214.728 182.045 214.753C181.99 215.103 182.825 215.981 183.451 216.355C183.397 215.769 183.161 215.215 182.776 214.771C182.66 214.669 182.511 214.615 182.358 214.617Z" fill="#6934FF"/>
<path d="M189.223 216.57H184.096L183.586 204.708H188.713L189.223 216.57Z" fill="#FFC3BD"/>
<path d="M225.234 208.471L220.512 210.098L215.612 198.918L220.334 197.29L225.234 208.471Z" fill="#FFC3BD"/>
<path d="M219.388 208.926L224.914 207.237C225.012 207.207 225.117 207.212 225.212 207.25C225.307 207.288 225.386 207.357 225.436 207.446L227.739 211.498C227.794 211.598 227.826 211.708 227.833 211.821C227.84 211.935 227.821 212.048 227.778 212.153C227.735 212.258 227.669 212.352 227.584 212.428C227.5 212.504 227.399 212.56 227.291 212.591C225.356 213.15 224.392 213.322 221.973 214.065C220.481 214.519 216.724 215.944 214.605 216.368C212.487 216.791 211.805 214.765 212.628 214.403C216.312 212.776 217.823 210.927 218.701 209.491C218.854 209.225 219.098 209.025 219.388 208.926Z" fill="#263238"/>
<path d="M184.132 215.974H189.726C189.827 215.976 189.925 216.011 190.004 216.074C190.083 216.138 190.139 216.226 190.162 216.324L191.175 220.88C191.2 220.99 191.2 221.104 191.175 221.214C191.149 221.324 191.099 221.427 191.028 221.514C190.957 221.602 190.867 221.672 190.765 221.72C190.663 221.767 190.551 221.791 190.438 221.789C188.418 221.758 185.526 221.636 182.966 221.636C180 221.636 178.754 221.801 175.272 221.801C173.173 221.801 172.589 219.677 173.467 219.48C177.477 218.602 179.435 218.51 182.898 216.374C183.266 216.13 183.692 215.992 184.132 215.974Z" fill="#263238"/>
<path d="M199.022 47.7937C200.514 49.1629 201.803 50.5321 203.142 51.9628C204.48 53.3934 205.721 54.8731 206.924 56.4511C208.181 58.0542 209.322 59.7449 210.338 61.5105C210.893 62.4836 211.374 63.4976 211.775 64.5436C211.879 64.8322 211.984 65.1085 212.069 65.4216C212.17 65.7384 212.254 66.0601 212.321 66.3856L212.426 66.8952L212.499 67.4601C212.568 67.9777 212.568 68.5021 212.499 69.0197C212.358 69.9967 211.997 70.9289 211.443 71.7459C211.039 72.3425 210.565 72.8887 210.031 73.3729C209.173 74.1516 208.234 74.837 207.231 75.4176C205.464 76.4283 203.616 77.2888 201.705 77.9902C198.081 79.3357 194.346 80.3629 190.543 81.0602L189.468 77.3762C192.802 75.9333 196.179 74.3738 199.292 72.7098C200.807 71.9149 202.266 71.0163 203.658 70.0205C204.237 69.6087 204.771 69.1352 205.248 68.6083C205.393 68.4525 205.515 68.2768 205.61 68.0864C205.659 67.982 205.61 67.9943 205.549 68.2153C205.506 68.6267 205.512 68.3074 205.414 68.0864C205.383 67.982 205.328 67.8408 205.272 67.7057C205.217 67.5706 205.15 67.4171 205.082 67.2698C204.749 66.6001 204.378 65.9503 203.971 65.3234C203.022 63.9154 201.998 62.5605 200.901 61.2649C199.771 59.9263 198.58 58.594 197.358 57.2861C196.136 55.9783 194.853 54.6582 193.674 53.4425L199.022 47.7937Z" fill="#FFC3BD"/>
<path d="M190.874 76.7928L186.042 78.2542L189.149 83.3626C189.149 83.3626 192.004 82.1838 192.636 79.7585L190.874 76.7928Z" fill="#FFC3BD"/>
<path d="M184.09 80.0656L185.993 84.2776L189.118 83.3689L186.011 78.2543L184.09 80.0656Z" fill="#FFC3BD"/>
<path d="M187.7 49.1814C187.239 54.0934 197.628 61.6947 197.628 61.6947L207.63 54.8486C205.893 51.6453 203.354 48.9478 200.262 47.0201C194.527 43.3484 188.277 43.0782 187.7 49.1814Z" fill="#6934FF"/>
<g opacity="0.3">
<path d="M187.7 49.1814C187.239 54.0934 197.628 61.6947 197.628 61.6947L207.63 54.8486C205.893 51.6453 203.354 48.9478 200.262 47.0201C194.527 43.3484 188.277 43.0782 187.7 49.1814Z" fill="white"/>
</g>
<path d="M170.692 48.7883C170.692 48.7883 166.204 55.6774 176.863 92.6279L203.965 88.6246C203.584 84.8792 199.053 68.5407 198.899 50.6794C198.893 49.8169 198.712 48.9645 198.367 48.1738C198.022 47.3832 197.521 46.6705 196.893 46.0789C196.266 45.4873 195.524 45.0291 194.715 44.7317C193.905 44.4344 193.043 44.3043 192.182 44.3491C191.396 44.3921 190.586 44.4473 189.781 44.5271C185.912 44.8721 182.066 45.44 178.263 46.2279C175.677 46.8858 173.146 47.7418 170.692 48.7883Z" fill="#6934FF"/>
<g opacity="0.3">
<path d="M170.692 48.7883C170.692 48.7883 166.204 55.6774 176.863 92.6279L203.965 88.6246C203.584 84.8792 199.053 68.5407 198.899 50.6794C198.893 49.8169 198.712 48.9645 198.367 48.1738C198.022 47.3832 197.521 46.6705 196.893 46.0789C196.266 45.4873 195.524 45.0291 194.715 44.7317C193.905 44.4344 193.043 44.3043 192.182 44.3491C191.396 44.3921 190.586 44.4473 189.781 44.5271C185.912 44.8721 182.066 45.44 178.263 46.2279C175.677 46.8858 173.146 47.7418 170.692 48.7883Z" fill="white"/>
</g>
<path opacity="0.2" d="M170.029 60.6631L170.121 60.5587L176.494 61.1236C177.464 65.2374 173.916 70.8494 172.043 73.4527C171.141 69.229 170.469 64.9595 170.029 60.6631Z" fill="black"/>
<path opacity="0.2" d="M183.586 204.714L183.85 210.829H188.977L188.713 204.714H183.586Z" fill="black"/>
<path opacity="0.2" d="M220.334 197.29L215.612 198.918L218.142 204.683L222.864 203.056L220.334 197.29Z" fill="black"/>
<path d="M186.134 26.5985C187.264 31.5534 188.173 34.3963 186.447 37.6505C183.856 42.4949 177.188 42.0283 174.603 37.5092C172.276 33.4384 170.815 26.0213 175.015 22.6811C175.935 21.9422 177.029 21.4502 178.192 21.2518C179.356 21.0534 180.551 21.1551 181.664 21.5473C182.777 21.9395 183.772 22.6092 184.554 23.4931C185.336 24.377 185.88 25.4458 186.134 26.5985Z" fill="#FFC3BD"/>
<path d="M176.181 31.4551L174.296 32.6094L174.474 26.1624C173.259 26.2146 172.06 25.8674 171.06 25.1738C171.742 24.523 182.352 20.8083 185.661 21.453C186.005 21.3118 186.423 20.6732 186.423 20.6732C186.423 20.6732 186.552 21.4776 185.993 21.7846C186.398 21.7047 187.411 21.9012 187.694 22.4968C187.229 22.3698 186.735 22.3979 186.288 22.5766C186.288 22.5766 189.972 23.1354 188.664 28.2438C187.196 33.8742 187.681 37.11 187.681 37.11C187.681 37.11 184.943 39.2283 182.561 38.8353C180.019 36.0355 176.347 32.6708 176.181 31.4551Z" fill="#263238"/>
<path d="M172.571 24.6643C169.581 24.6643 168.506 23.203 167.739 21.975C169.888 21.7478 174.364 20.3663 177.685 20.133C181.007 19.8996 184.648 20.5198 183.549 21.975C182.45 23.4301 172.571 24.6643 172.571 24.6643Z" fill="#263238"/>
<path d="M173.228 23.3319C170.772 22.9881 168.377 20.6733 170.219 18.4568C170.901 20.0839 175.5 19.8935 178.766 19.212C183.064 18.3156 186.042 19.7646 184.519 22.6934C183.684 24.2959 173.228 23.3319 173.228 23.3319Z" fill="#263238"/>
<path d="M178.834 29.9877C179.185 31.2 179.129 32.4942 178.674 33.6717C178.06 35.2128 176.697 34.8997 175.985 33.5673C175.371 32.3393 174.904 30.1105 175.948 28.9991C176.992 27.8878 178.392 28.5325 178.834 29.9877Z" fill="#FFC3BD"/>
<path d="M186.478 91.2097C186.478 91.2097 190.874 128.633 194.067 143.295C197.561 159.358 214.796 203.148 214.796 203.148L223.392 200.176C223.392 200.176 212.34 167.204 209.405 144.751C207.151 127.509 203.94 88.6248 203.94 88.6248L186.478 91.2097Z" fill="#263238"/>
<path d="M212.598 200.397C212.555 200.397 214.36 204.081 214.36 204.081L224.399 200.821L223.22 197.825L212.598 200.397Z" fill="#6934FF"/>
<path opacity="0.3" d="M188.903 110.409C190.279 120.811 192.041 133.127 193.588 140.993C195.866 128.94 196.4 113.719 188.903 110.409Z" fill="black"/>
<path d="M176.863 92.628C176.863 92.628 173.216 127.786 173.793 143.406C174.37 159.652 181.959 209.644 181.959 209.644H190.635C190.635 209.644 189.038 160.598 189.407 144.646C189.83 127.251 196.351 89.7483 196.351 89.7483L176.863 92.628Z" fill="#263238"/>
<path d="M180.27 206.187C180.234 206.187 180.762 209.785 180.762 209.785H191.316L191.605 206.574L180.27 206.187Z" fill="#6934FF"/>
<path d="M175.18 57.4212C174.223 58.944 173.252 60.3132 172.245 61.7192C171.238 63.1253 170.182 64.4822 169.108 65.833C166.917 68.5733 164.544 71.1621 162.004 73.5817C161.316 74.1957 160.684 74.8097 159.941 75.3685L159.401 75.8044L159.13 76.0193C159.032 76.0991 158.989 76.1421 158.787 76.2895C158.178 76.7233 157.51 77.0667 156.803 77.3087C155.709 77.6825 154.564 77.8895 153.408 77.9227C152.43 77.9555 151.451 77.9124 150.479 77.7938C146.928 77.3282 143.463 76.3477 140.195 74.8834L141.257 71.1994C144.398 71.5721 147.562 71.7239 150.725 71.6538C151.424 71.6171 152.121 71.5413 152.812 71.4266C153.333 71.3505 153.839 71.193 154.31 70.96C154.458 70.8801 154.538 70.8003 154.519 70.7819C154.501 70.7635 154.599 70.7021 154.654 70.6468L154.863 70.4565L155.274 70.0696C155.827 69.5784 156.349 68.9829 156.889 68.4425C157.952 67.3005 159.008 66.1278 160.008 64.8813C161.009 63.6349 162.022 62.3824 163.005 61.093C163.987 59.8036 164.939 58.4957 165.897 57.1879C166.855 55.8801 167.788 54.5047 168.672 53.2338L175.18 57.4212Z" fill="#FFC3BD"/>
<path d="M178.748 55.7942C180.811 62.5482 168.832 70.0328 168.832 70.0328L161.046 60.1167C162.801 56.8471 164.968 53.8158 167.493 51.0971C172.792 45.3316 177.176 50.655 178.748 55.7942Z" fill="#6934FF"/>
<g opacity="0.3">
<path d="M178.748 55.7942C180.811 62.5482 168.832 70.0328 168.832 70.0328L161.046 60.1167C162.801 56.8471 164.968 53.8158 167.493 51.0971C172.792 45.3316 177.176 50.655 178.748 55.7942Z" fill="white"/>
</g>
<path d="M143.062 71.4265L136.756 70.2722L137.419 75.7245C137.419 75.7245 140.698 77.5665 143.074 74.6869L143.062 71.4265Z" fill="#FFC3BD"/>
<path d="M134.325 71.5002L135.688 75.436L137.407 75.7245L136.744 70.2722L134.325 71.5002Z" fill="#FFC3BD"/>
</svg>
