<svg width="40" height="39" viewBox="0 0 60 59" fill="none" xmlns="http://www.w3.org/2000/svg">
<path d="M40.7183 34.4167C40.915 32.7943 41.0625 31.1717 41.0625 29.5001C41.0625 27.8284 40.915 26.2059 40.7183 24.5834H49.0275C49.4208 26.1567 49.6667 27.8038 49.6667 29.5001C49.6667 31.1963 49.4208 32.8434 49.0275 34.4167M36.3671 48.0851C37.8421 45.3563 38.9729 42.4063 39.7596 39.3334H47.0117C44.6299 43.4346 40.8514 46.5412 36.3671 48.0851ZM35.7525 34.4167H24.2475C24.0017 32.7943 23.8542 31.1717 23.8542 29.5001C23.8542 27.8284 24.0017 26.1813 24.2475 24.5834H35.7525C35.9737 26.1813 36.1458 27.8284 36.1458 29.5001C36.1458 31.1717 35.9737 32.7943 35.7525 34.4167ZM30 49.0684C27.9596 46.1184 26.3125 42.8488 25.3046 39.3334H34.6954C33.6875 42.8488 32.0404 46.1184 30 49.0684ZM20.1667 19.6667H12.9883C15.3455 15.5545 19.1214 12.4429 23.6083 10.9151C22.1333 13.6438 21.0271 16.5938 20.1667 19.6667ZM12.9883 39.3334H20.1667C21.0271 42.4063 22.1333 45.3563 23.6083 48.0851C19.1308 46.5404 15.3602 43.4332 12.9883 39.3334ZM10.9725 34.4167C10.5792 32.8434 10.3333 31.1963 10.3333 29.5001C10.3333 27.8038 10.5792 26.1567 10.9725 24.5834H19.2817C19.085 26.2059 18.9375 27.8284 18.9375 29.5001C18.9375 31.1717 19.085 32.7943 19.2817 34.4167M30 9.90717C32.0404 12.8572 33.6875 16.1513 34.6954 19.6667H25.3046C26.3125 16.1513 27.9596 12.8572 30 9.90717ZM47.0117 19.6667H39.7596C38.9902 16.622 37.8509 13.6829 36.3671 10.9151C40.8904 12.4638 44.6517 15.5859 47.0117 19.6667ZM30 4.91675C16.4054 4.91675 5.41666 15.9792 5.41666 29.5001C5.41666 36.02 8.00668 42.2729 12.6169 46.8831C14.8997 49.1659 17.6098 50.9767 20.5924 52.2121C23.5749 53.4476 26.7717 54.0834 30 54.0834C36.5199 54.0834 42.7728 51.4934 47.383 46.8831C51.9933 42.2729 54.5833 36.02 54.5833 29.5001C54.5833 26.2718 53.9475 23.075 52.712 20.0924C51.4766 17.1099 49.6658 14.3998 47.383 12.117C45.1003 9.83427 42.3902 8.02347 39.4076 6.78804C36.425 5.55261 33.2283 4.91675 30 4.91675Z" fill="#6934FF"/>
</svg>
